<svg width="40" height="40" viewBox="0 0 40 40" fill="none" xmlns="http://www.w3.org/2000/svg">
<g clip-path="url(#clip0_174_1945)">
<path d="M7.55987 13.7041C8.03081 13.115 8.35034 12.3241 8.26612 11.5159C7.57675 11.5502 6.7355 11.9708 6.24847 12.5602C5.81112 13.0651 5.42409 13.8891 5.52503 14.6634C6.29878 14.7305 7.07198 14.2766 7.55987 13.7041ZM8.2573 14.8145C7.13347 14.7476 6.17792 15.4523 5.6412 15.4523C5.10425 15.4523 4.28237 14.8483 3.39347 14.8645C2.23652 14.8816 1.163 15.5357 0.57589 16.5761C-0.631688 18.6574 0.257218 21.7448 1.43152 23.4398C2.00175 24.2784 2.68909 25.2019 3.59464 25.1687C4.45026 25.1351 4.78566 24.6146 5.82566 24.6146C6.86495 24.6146 7.16706 25.1687 8.07277 25.1519C9.01206 25.1351 9.59925 24.3128 10.1695 23.4734C10.8237 22.5173 11.0915 21.5943 11.1083 21.5436C11.0914 21.5268 9.29714 20.8384 9.2805 18.7745C9.26355 17.0462 10.6892 16.2241 10.7564 16.1732C9.95136 14.9826 8.69339 14.8483 8.2573 14.8145ZM18.0428 12.4756C20.4855 12.4756 22.1864 14.1594 22.1864 16.6108C22.1864 19.0709 20.4504 20.7634 17.9816 20.7634H15.2771V25.0643H13.3232V12.4756H18.0428ZM15.2771 19.1233H17.5191C19.2203 19.1233 20.1885 18.2073 20.1885 16.6195C20.1885 15.0319 19.2203 14.1245 17.5278 14.1245H15.2771V19.1233ZM22.6969 22.4559C22.6969 20.8506 23.927 19.8648 26.1082 19.7427L28.6205 19.5945V18.8879C28.6205 17.8672 27.9313 17.2565 26.78 17.2565C25.6892 17.2565 25.0087 17.7798 24.8432 18.6H23.0635C23.1682 16.9423 24.5813 15.721 26.8496 15.721C29.0742 15.721 30.4961 16.8988 30.4961 18.7395V25.0643H28.6902V23.5551H28.6468C28.1146 24.5759 26.9543 25.2213 25.7504 25.2213C23.9532 25.2213 22.6969 24.1046 22.6969 22.4559ZM28.6204 21.6272V20.9031L26.3609 21.0427C25.2355 21.1213 24.5987 21.6185 24.5987 22.4037C24.5987 23.2062 25.2617 23.7297 26.2737 23.7297C27.591 23.7295 28.6204 22.8223 28.6204 21.6272ZM32.201 28.4405V26.9138C32.3403 26.9487 32.6543 26.9487 32.8114 26.9487C33.6838 26.9487 34.155 26.5823 34.4427 25.6402C34.4427 25.6227 34.6086 25.0818 34.6086 25.073L31.2936 15.8867H33.3348L35.6557 23.3545H35.6903L38.0112 15.8867H40L36.5625 25.5441C35.7777 27.7688 34.8703 28.4841 32.9685 28.4841C32.8114 28.4841 32.3403 28.4666 32.201 28.4405Z" fill="black"/>
</g>
<defs>
<clipPath id="clip0_174_1945">
<rect width="40" height="40" fill="white"/>
</clipPath>
</defs>
</svg>
