<svg width="29" height="32" viewBox="0 0 29 32" fill="none" xmlns="http://www.w3.org/2000/svg">
<path d="M1.01226 21L1.51078 21.0383L1.51226 21.0192V21H1.01226ZM28.3662 27.8536C28.5615 27.6583 28.5615 27.3417 28.3662 27.1464L25.1843 23.9645C24.989 23.7692 24.6724 23.7692 24.4772 23.9645C24.2819 24.1597 24.2819 24.4763 24.4772 24.6716L27.3056 27.5L24.4772 30.3284C24.2819 30.5237 24.2819 30.8403 24.4772 31.0355C24.6724 31.2308 24.989 31.2308 25.1843 31.0355L28.3662 27.8536ZM0.512257 0V21H1.51226V0H0.512257ZM0.51373 20.9617C0.421191 22.1647 0.780103 23.9318 2.13179 25.401C3.49434 26.8821 5.80866 28 9.51226 28V27C6.01585 27 3.99685 25.9513 2.86772 24.724C1.72774 23.4849 1.43666 22.002 1.51078 21.0383L0.51373 20.9617ZM9.51226 28C9.52632 28 9.54039 28 9.55445 28C9.56852 28 9.5826 28 9.59667 28C9.61075 28 9.62483 28 9.63891 28C9.653 28 9.66708 28 9.68118 28C9.69526 28 9.70936 28 9.72346 28C9.73755 28 9.75165 28 9.76576 28C9.77986 28 9.79397 28 9.80808 28C9.82219 28 9.8363 28 9.85042 28C9.86453 28 9.87865 28 9.89278 28C9.9069 28 9.92103 28 9.93516 28C9.94929 28 9.96342 28 9.97755 28C9.99169 28 10.0058 28 10.02 28C10.0341 28 10.0483 28 10.0624 28C10.0766 28 10.0907 28 10.1049 28C10.119 28 10.1332 28 10.1473 28C10.1615 28 10.1756 28 10.1898 28C10.204 28 10.2181 28 10.2323 28C10.2465 28 10.2607 28 10.2748 28C10.289 28 10.3032 28 10.3174 28C10.3316 28 10.3457 28 10.3599 28C10.3741 28 10.3883 28 10.4025 28C10.4167 28 10.4309 28 10.4451 28C10.4593 28 10.4735 28 10.4877 28C10.5019 28 10.5161 28 10.5303 28C10.5445 28 10.5587 28 10.5729 28C10.5871 28 10.6014 28 10.6156 28C10.6298 28 10.644 28 10.6582 28C10.6725 28 10.6867 28 10.7009 28C10.7151 28 10.7294 28 10.7436 28C10.7578 28 10.7721 28 10.7863 28C10.8005 28 10.8148 28 10.829 28C10.8433 28 10.8575 28 10.8718 28C10.886 28 10.9003 28 10.9145 28C10.9287 28 10.943 28 10.9573 28C10.9715 28 10.9858 28 11 28C11.0143 28 11.0285 28 11.0428 28C11.0571 28 11.0713 28 11.0856 28C11.0999 28 11.1141 28 11.1284 28C11.1427 28 11.1569 28 11.1712 28C11.1855 28 11.1998 28 11.214 28C11.2283 28 11.2426 28 11.2569 28C11.2712 28 11.2854 28 11.2997 28C11.314 28 11.3283 28 11.3426 28C11.3569 28 11.3712 28 11.3854 28C11.3997 28 11.414 28 11.4283 28C11.4426 28 11.4569 28 11.4712 28C11.4855 28 11.4998 28 11.5141 28C11.5284 28 11.5427 28 11.557 28C11.5713 28 11.5856 28 11.5999 28C11.6142 28 11.6285 28 11.6428 28C11.6572 28 11.6715 28 11.6858 28C11.7001 28 11.7144 28 11.7287 28C11.743 28 11.7573 28 11.7717 28C11.786 28 11.8003 28 11.8146 28C11.8289 28 11.8433 28 11.8576 28C11.8719 28 11.8862 28 11.9005 28C11.9149 28 11.9292 28 11.9435 28C11.9578 28 11.9722 28 11.9865 28C12.0008 28 12.0152 28 12.0295 28C12.0438 28 12.0581 28 12.0725 28C12.0868 28 12.1011 28 12.1155 28C12.1298 28 12.1441 28 12.1585 28C12.1728 28 12.1871 28 12.2015 28C12.2158 28 12.2302 28 12.2445 28C12.2588 28 12.2732 28 12.2875 28C12.3019 28 12.3162 28 12.3305 28C12.3449 28 12.3592 28 12.3736 28C12.3879 28 12.4022 28 12.4166 28C12.4309 28 12.4453 28 12.4596 28C12.474 28 12.4883 28 12.5027 28C12.517 28 12.5313 28 12.5457 28C12.56 28 12.5744 28 12.5887 28C12.6031 28 12.6174 28 12.6318 28C12.6461 28 12.6605 28 12.6748 28C12.6892 28 12.7035 28 12.7179 28C12.7322 28 12.7466 28 12.7609 28C12.7753 28 12.7896 28 12.804 28C12.8183 28 12.8327 28 12.847 28C12.8614 28 12.8757 28 12.8901 28C12.9044 28 12.9188 28 12.9331 28C12.9475 28 12.9618 28 12.9762 28C12.9905 28 13.0049 28 13.0192 28C13.0336 28 13.0479 28 13.0623 28C13.0766 28 13.091 28 13.1053 28C13.1197 28 13.134 28 13.1484 28C13.1627 28 13.1771 28 13.1914 28C13.2058 28 13.2201 28 13.2345 28C13.2488 28 13.2632 28 13.2775 28C13.2919 28 13.3062 28 13.3206 28C13.3349 28 13.3493 28 13.3636 28C13.378 28 13.3923 28 13.4067 28C13.421 28 13.4354 28 13.4497 28C13.4641 28 13.4784 28 13.4927 28C13.5071 28 13.5214 28 13.5358 28C13.5501 28 13.5645 28 13.5788 28C13.5931 28 13.6075 28 13.6218 28C13.6362 28 13.6505 28 13.6649 28C13.6792 28 13.6935 28 13.7079 28C13.7222 28 13.7365 28 13.7509 28C13.7652 28 13.7796 28 13.7939 28C13.8082 28 13.8226 28 13.8369 28C13.8512 28 13.8656 28 13.8799 28C13.8942 28 13.9086 28 13.9229 28C13.9372 28 13.9515 28 13.9659 28C13.9802 28 13.9945 28 14.0088 28C14.0232 28 14.0375 28 14.0518 28C14.0661 28 14.0805 28 14.0948 28C14.1091 28 14.1234 28 14.1378 28C14.1521 28 14.1664 28 14.1807 28C14.195 28 14.2093 28 14.2237 28C14.238 28 14.2523 28 14.2666 28C14.2809 28 14.2952 28 14.3095 28C14.3238 28 14.3381 28 14.3524 28C14.3667 28 14.3811 28 14.3954 28C14.4097 28 14.424 28 14.4383 28C14.4526 28 14.4669 28 14.4812 28C14.4955 28 14.5098 28 14.524 28C14.5383 28 14.5526 28 14.5669 28C14.5812 28 14.5955 28 14.6098 28C14.6241 28 14.6384 28 14.6526 28C14.6669 28 14.6812 28 14.6955 28C14.7098 28 14.7241 28 14.7383 28C14.7526 28 14.7669 28 14.7812 28C14.7954 28 14.8097 28 14.824 28C14.8382 28 14.8525 28 14.8668 28C14.881 28 14.8953 28 14.9096 28C14.9238 28 14.9381 28 14.9523 28C14.9666 28 14.9809 28 14.9951 28C15.0094 28 15.0236 28 15.0379 28C15.0521 28 15.0664 28 15.0806 28C15.0949 28 15.1091 28 15.1233 28C15.1376 28 15.1518 28 15.1661 28C15.1803 28 15.1945 28 15.2088 28C15.223 28 15.2372 28 15.2515 28C15.2657 28 15.2799 28 15.2941 28C15.3084 28 15.3226 28 15.3368 28C15.351 28 15.3652 28 15.3794 28C15.3937 28 15.4079 28 15.4221 28C15.4363 28 15.4505 28 15.4647 28C15.4789 28 15.4931 28 15.5073 28C15.5215 28 15.5357 28 15.5499 28C15.5641 28 15.5783 28 15.5924 28C15.6066 28 15.6208 28 15.635 28C15.6492 28 15.6634 28 15.6775 28C15.6917 28 15.7059 28 15.7201 28C15.7342 28 15.7484 28 15.7626 28C15.7767 28 15.7909 28 15.8051 28C15.8192 28 15.8334 28 15.8475 28C15.8617 28 15.8758 28 15.89 28C15.9041 28 15.9183 28 15.9324 28C15.9466 28 15.9607 28 15.9748 28C15.989 28 16.0031 28 16.0172 28C16.0314 28 16.0455 28 16.0596 28C16.0737 28 16.0878 28 16.102 28C16.1161 28 16.1302 28 16.1443 28C16.1584 28 16.1725 28 16.1866 28C16.2007 28 16.2148 28 16.2289 28C16.243 28 16.2571 28 16.2712 28C16.2853 28 16.2994 28 16.3135 28C16.3276 28 16.3416 28 16.3557 28C16.3698 28 16.3839 28 16.3979 28C16.412 28 16.4261 28 16.4401 28C16.4542 28 16.4683 28 16.4823 28C16.4964 28 16.5104 28 16.5245 28C16.5385 28 16.5526 28 16.5666 28C16.5806 28 16.5947 28 16.6087 28C16.6227 28 16.6368 28 16.6508 28C16.6648 28 16.6788 28 16.6929 28C16.7069 28 16.7209 28 16.7349 28C16.7489 28 16.7629 28 16.7769 28C16.7909 28 16.8049 28 16.8189 28C16.8329 28 16.8469 28 16.8609 28C16.8749 28 16.8889 28 16.9028 28C16.9168 28 16.9308 28 16.9448 28C16.9587 28 16.9727 28 16.9867 28C17.0006 28 17.0146 28 17.0286 28C17.0425 28 17.0565 28 17.0704 28C17.0843 28 17.0983 28 17.1122 28C17.1262 28 17.1401 28 17.154 28C17.168 28 17.1819 28 17.1958 28C17.2097 28 17.2236 28 17.2375 28C17.2515 28 17.2654 28 17.2793 28C17.2932 28 17.3071 28 17.321 28C17.3349 28 17.3487 28 17.3626 28C17.3765 28 17.3904 28 17.4043 28C17.4181 28 17.432 28 17.4459 28C17.4598 28 17.4736 28 17.4875 28C17.5013 28 17.5152 28 17.529 28C17.5429 28 17.5567 28 17.5706 28C17.5844 28 17.5982 28 17.6121 28C17.6259 28 17.6397 28 17.6535 28C17.6674 28 17.6812 28 17.695 28C17.7088 28 17.7226 28 17.7364 28C17.7502 28 17.764 28 17.7778 28C17.7916 28 17.8053 28 17.8191 28C17.8329 28 17.8467 28 17.8605 28C17.8742 28 17.888 28 17.9017 28C17.9155 28 17.9293 28 17.943 28C17.9568 28 17.9705 28 17.9842 28C17.998 28 18.0117 28 18.0254 28C18.0392 28 18.0529 28 18.0666 28C18.0803 28 18.094 28 18.1078 28C18.1215 28 18.1352 28 18.1489 28C18.1626 28 18.1762 28 18.1899 28C18.2036 28 18.2173 28 18.231 28C18.2446 28 18.2583 28 18.272 28C18.2856 28 18.2993 28 18.313 28C18.3266 28 18.3403 28 18.3539 28C18.3675 28 18.3812 28 18.3948 28C18.4084 28 18.4221 28 18.4357 28C18.4493 28 18.4629 28 18.4765 28C18.4901 28 18.5037 28 18.5173 28C18.5309 28 18.5445 28 18.5581 28C18.5717 28 18.5853 28 18.5988 28C18.6124 28 18.626 28 18.6396 28C18.6531 28 18.6667 28 18.6802 28C18.6938 28 18.7073 28 18.7209 28C18.7344 28 18.7479 28 18.7614 28C18.775 28 18.7885 28 18.802 28C18.8155 28 18.829 28 18.8425 28C18.856 28 18.8695 28 18.883 28C18.8965 28 18.91 28 18.9235 28C18.9369 28 18.9504 28 18.9639 28C18.9773 28 18.9908 28 19.0043 28C19.0177 28 19.0312 28 19.0446 28C19.058 28 19.0715 28 19.0849 28C19.0983 28 19.1117 28 19.1252 28C19.1386 28 19.152 28 19.1654 28C19.1788 28 19.1922 28 19.2056 28C19.219 28 19.2323 28 19.2457 28C19.2591 28 19.2725 28 19.2858 28C19.2992 28 19.3125 28 19.3259 28C19.3392 28 19.3526 28 19.3659 28C19.3792 28 19.3926 28 19.4059 28C19.4192 28 19.4325 28 19.4458 28C19.4592 28 19.4725 28 19.4857 28C19.499 28 19.5123 28 19.5256 28C19.5389 28 19.5522 28 19.5654 28C19.5787 28 19.592 28 19.6052 28C19.6185 28 19.6317 28 19.645 28C19.6582 28 19.6714 28 19.6847 28C19.6979 28 19.7111 28 19.7243 28C19.7375 28 19.7507 28 19.7639 28C19.7771 28 19.7903 28 19.8035 28C19.8167 28 19.8299 28 19.843 28C19.8562 28 19.8694 28 19.8825 28C19.8957 28 19.9088 28 19.922 28C19.9351 28 19.9482 28 19.9613 28C19.9745 28 19.9876 28 20.0007 28C20.0138 28 20.0269 28 20.04 28C20.0531 28 20.0662 28 20.0793 28C20.0924 28 20.1054 28 20.1185 28C20.1316 28 20.1446 28 20.1577 28C20.1707 28 20.1838 28 20.1968 28C20.2098 28 20.2229 28 20.2359 28C20.2489 28 20.2619 28 20.2749 28C20.2879 28 20.3009 28 20.3139 28C20.3269 28 20.3399 28 20.3529 28C20.3658 28 20.3788 28 20.3918 28C20.4047 28 20.4177 28 20.4306 28C20.4436 28 20.4565 28 20.4694 28C20.4823 28 20.4953 28 20.5082 28C20.5211 28 20.534 28 20.5469 28C20.5598 28 20.5727 28 20.5855 28C20.5984 28 20.6113 28 20.6242 28C20.637 28 20.6499 28 20.6627 28C20.6756 28 20.6884 28 20.7012 28C20.7141 28 20.7269 28 20.7397 28C20.7525 28 20.7653 28 20.7781 28C20.7909 28 20.8037 28 20.8165 28C20.8293 28 20.842 28 20.8548 28C20.8676 28 20.8803 28 20.8931 28C20.9058 28 20.9186 28 20.9313 28C20.944 28 20.9567 28 20.9695 28C20.9822 28 20.9949 28 21.0076 28C21.0203 28 21.033 28 21.0456 28C21.0583 28 21.071 28 21.0836 28C21.0963 28 21.109 28 21.1216 28C21.1343 28 21.1469 28 21.1595 28C21.1721 28 21.1848 28 21.1974 28C21.21 28 21.2226 28 21.2352 28C21.2478 28 21.2604 28 21.2729 28C21.2855 28 21.2981 28 21.3106 28C21.3232 28 21.3357 28 21.3483 28C21.3608 28 21.3733 28 21.3859 28C21.3984 28 21.4109 28 21.4234 28C21.4359 28 21.4484 28 21.4609 28C21.4734 28 21.4859 28 21.4983 28C21.5108 28 21.5232 28 21.5357 28C21.5481 28 21.5606 28 21.573 28C21.5854 28 21.5979 28 21.6103 28C21.6227 28 21.6351 28 21.6475 28C21.6599 28 21.6723 28 21.6846 28C21.697 28 21.7094 28 21.7217 28C21.7341 28 21.7464 28 21.7588 28C21.7711 28 21.7835 28 21.7958 28C21.8081 28 21.8204 28 21.8327 28C21.845 28 21.8573 28 21.8696 28C21.8819 28 21.8941 28 21.9064 28C21.9186 28 21.9309 28 21.9431 28C21.9554 28 21.9676 28 21.9798 28C21.9921 28 22.0043 28 22.0165 28C22.0287 28 22.0409 28 22.0531 28C22.0653 28 22.0774 28 22.0896 28C22.1018 28 22.1139 28 22.1261 28C22.1382 28 22.1503 28 22.1625 28C22.1746 28 22.1867 28 22.1988 28C22.2109 28 22.223 28 22.2351 28C22.2472 28 22.2593 28 22.2713 28C22.2834 28 22.2955 28 22.3075 28C22.3195 28 22.3316 28 22.3436 28C22.3556 28 22.3676 28 22.3797 28C22.3917 28 22.4037 28 22.4156 28C22.4276 28 22.4396 28 22.4516 28C22.4635 28 22.4755 28 22.4874 28C22.4994 28 22.5113 28 22.5232 28C22.5352 28 22.5471 28 22.559 28C22.5709 28 22.5828 28 22.5946 28C22.6065 28 22.6184 28 22.6303 28C22.6421 28 22.654 28 22.6658 28C22.6777 28 22.6895 28 22.7013 28C22.7131 28 22.7249 28 22.7367 28C22.7485 28 22.7603 28 22.7721 28C22.7839 28 22.7956 28 22.8074 28C22.8191 28 22.8309 28 22.8426 28C22.8544 28 22.8661 28 22.8778 28C22.8895 28 22.9012 28 22.9129 28C22.9246 28 22.9363 28 22.9479 28C22.9596 28 22.9713 28 22.9829 28C22.9946 28 23.0062 28 23.0178 28C23.0294 28 23.0411 28 23.0527 28C23.0643 28 23.0759 28 23.0874 28C23.099 28 23.1106 28 23.1222 28C23.1337 28 23.1453 28 23.1568 28C23.1683 28 23.1799 28 23.1914 28C23.2029 28 23.2144 28 23.2259 28C23.2374 28 23.2489 28 23.2603 28C23.2718 28 23.2833 28 23.2947 28C23.3062 28 23.3176 28 23.329 28C23.3404 28 23.3519 28 23.3633 28C23.3747 28 23.3861 28 23.3974 28C23.4088 28 23.4202 28 23.4315 28C23.4429 28 23.4542 28 23.4656 28C23.4769 28 23.4882 28 23.4995 28C23.5109 28 23.5222 28 23.5334 28C23.5447 28 23.556 28 23.5673 28C23.5785 28 23.5898 28 23.601 28C23.6123 28 23.6235 28 23.6347 28C23.6459 28 23.6571 28 23.6683 28C23.6795 28 23.6907 28 23.7019 28C23.713 28 23.7242 28 23.7353 28C23.7465 28 23.7576 28 23.7688 28C23.7799 28 23.791 28 23.8021 28C23.8132 28 23.8243 28 23.8353 28C23.8464 28 23.8575 28 23.8685 28C23.8796 28 23.8906 28 23.9017 28C23.9127 28 23.9237 28 23.9347 28C23.9457 28 23.9567 28 23.9677 28C23.9786 28 23.9896 28 24.0006 28C24.0115 28 24.0225 28 24.0334 28C24.0443 28 24.0552 28 24.0661 28C24.077 28 24.0879 28 24.0988 28C24.1097 28 24.1206 28 24.1314 28C24.1423 28 24.1531 28 24.164 28C24.1748 28 24.1856 28 24.1964 28C24.2072 28 24.218 28 24.2288 28C24.2396 28 24.2503 28 24.2611 28C24.2718 28 24.2826 28 24.2933 28C24.304 28 24.3148 28 24.3255 28C24.3362 28 24.3469 28 24.3575 28C24.3682 28 24.3789 28 24.3895 28C24.4002 28 24.4108 28 24.4215 28C24.4321 28 24.4427 28 24.4533 28C24.4639 28 24.4745 28 24.4851 28C24.4957 28 24.5062 28 24.5168 28C24.5273 28 24.5379 28 24.5484 28C24.5589 28 24.5694 28 24.5799 28C24.5904 28 24.6009 28 24.6114 28C24.6219 28 24.6323 28 24.6428 28C24.6532 28 24.6637 28 24.6741 28C24.6845 28 24.6949 28 24.7053 28C24.7157 28 24.7261 28 24.7365 28C24.7468 28 24.7572 28 24.7675 28C24.7779 28 24.7882 28 24.7985 28C24.8088 28 24.8191 28 24.8294 28C24.8397 28 24.85 28 24.8602 28C24.8705 28 24.8807 28 24.891 28C24.9012 28 24.9114 28 24.9216 28C24.9319 28 24.942 28 24.9522 28C24.9624 28 24.9726 28 24.9827 28C24.9929 28 25.003 28 25.0132 28C25.0233 28 25.0334 28 25.0435 28C25.0536 28 25.0637 28 25.0737 28C25.0838 28 25.0939 28 25.1039 28C25.114 28 25.124 28 25.134 28C25.144 28 25.154 28 25.164 28C25.174 28 25.184 28 25.194 28C25.2039 28 25.2139 28 25.2238 28C25.2337 28 25.2436 28 25.2536 28C25.2635 28 25.2733 28 25.2832 28C25.2931 28 25.303 28 25.3128 28C25.3227 28 25.3325 28 25.3423 28C25.3521 28 25.362 28 25.3717 28C25.3815 28 25.3913 28 25.4011 28C25.4109 28 25.4206 28 25.4303 28C25.4401 28 25.4498 28 25.4595 28C25.4692 28 25.4789 28 25.4886 28C25.4983 28 25.5079 28 25.5176 28C25.5272 28 25.5369 28 25.5465 28C25.5561 28 25.5657 28 25.5753 28C25.5849 28 25.5945 28 25.604 28C25.6136 28 25.6232 28 25.6327 28C25.6422 28 25.6518 28 25.6613 28C25.6708 28 25.6803 28 25.6897 28C25.6992 28 25.7087 28 25.7181 28C25.7276 28 25.737 28 25.7464 28C25.7558 28 25.7652 28 25.7746 28C25.784 28 25.7934 28 25.8027 28C25.8121 28 25.8214 28 25.8308 28C25.8401 28 25.8494 28 25.8587 28C25.868 28 25.8773 28 25.8866 28C25.8958 28 25.9051 28 25.9143 28C25.9236 28 25.9328 28 25.942 28C25.9512 28 25.9604 28 25.9696 28C25.9788 28 25.9879 28 25.9971 28C26.0062 28 26.0154 28 26.0245 28C26.0336 28 26.0427 28 26.0518 28C26.0609 28 26.07 28 26.079 28C26.0881 28 26.0971 28 26.1061 28C26.1152 28 26.1242 28 26.1332 28C26.1422 28 26.1512 28 26.1601 28C26.1691 28 26.178 28 26.187 28C26.1959 28 26.2048 28 26.2137 28C26.2226 28 26.2315 28 26.2404 28C26.2493 28 26.2581 28 26.267 28C26.2758 28 26.2846 28 26.2935 28C26.3023 28 26.3111 28 26.3198 28C26.3286 28 26.3374 28 26.3461 28C26.3549 28 26.3636 28 26.3723 28C26.3811 28 26.3898 28 26.3984 28C26.4071 28 26.4158 28 26.4245 28C26.4331 28 26.4417 28 26.4504 28C26.459 28 26.4676 28 26.4762 28C26.4848 28 26.4934 28 26.5019 28C26.5105 28 26.519 28 26.5275 28C26.5361 28 26.5446 28 26.5531 28C26.5616 28 26.57 28 26.5785 28C26.587 28 26.5954 28 26.6038 28C26.6123 28 26.6207 28 26.6291 28C26.6375 28 26.6459 28 26.6542 28C26.6626 28 26.6709 28 26.6793 28C26.6876 28 26.6959 28 26.7042 28C26.7125 28 26.7208 28 26.7291 28C26.7374 28 26.7456 28 26.7538 28C26.7621 28 26.7703 28 26.7785 28C26.7867 28 26.7949 28 26.8031 28C26.8112 28 26.8194 28 26.8275 28C26.8356 28 26.8438 28 26.8519 28C26.86 28 26.8681 28 26.8761 28C26.8842 28 26.8923 28 26.9003 28C26.9083 28 26.9163 28 26.9244 28C26.9324 28 26.9403 28 26.9483 28C26.9563 28 26.9642 28 26.9722 28C26.9801 28 26.988 28 26.9959 28C27.0038 28 27.0117 28 27.0196 28C27.0275 28 27.0353 28 27.0431 28C27.051 28 27.0588 28 27.0666 28C27.0744 28 27.0822 28 27.09 28C27.0977 28 27.1055 28 27.1132 28C27.1209 28 27.1287 28 27.1364 28C27.1441 28 27.1517 28 27.1594 28C27.1671 28 27.1747 28 27.1823 28C27.19 28 27.1976 28 27.2052 28C27.2128 28 27.2204 28 27.2279 28C27.2355 28 27.243 28 27.2506 28C27.2581 28 27.2656 28 27.2731 28C27.2806 28 27.288 28 27.2955 28C27.303 28 27.3104 28 27.3178 28C27.3252 28 27.3327 28 27.34 28C27.3474 28 27.3548 28 27.3622 28C27.3695 28 27.3768 28 27.3842 28C27.3915 28 27.3988 28 27.4061 28C27.4133 28 27.4206 28 27.4279 28C27.4351 28 27.4423 28 27.4495 28C27.4568 28 27.4639 28 27.4711 28C27.4783 28 27.4855 28 27.4926 28C27.4997 28 27.5069 28 27.514 28C27.5211 28 27.5282 28 27.5352 28C27.5423 28 27.5494 28 27.5564 28C27.5634 28 27.5704 28 27.5774 28C27.5844 28 27.5914 28 27.5984 28C27.6053 28 27.6123 28 27.6192 28C27.6261 28 27.633 28 27.6399 28C27.6468 28 27.6537 28 27.6605 28C27.6674 28 27.6742 28 27.681 28C27.6879 28 27.6947 28 27.7014 28C27.7082 28 27.715 28 27.7217 28C27.7285 28 27.7352 28 27.7419 28C27.7486 28 27.7553 28 27.762 28C27.7686 28 27.7753 28 27.7819 28C27.7886 28 27.7952 28 27.8018 28C27.8084 28 27.8149 28 27.8215 28C27.8281 28 27.8346 28 27.8411 28C27.8476 28 27.8542 28 27.8606 28C27.8671 28 27.8736 28 27.88 28C27.8865 28 27.8929 28 27.8993 28C27.9057 28 27.9121 28 27.9185 28C27.9249 28 27.9312 28 27.9376 28C27.9439 28 27.9502 28 27.9565 28C27.9628 28 27.9691 28 27.9754 28C27.9816 28 27.9879 28 27.9941 28C28.0003 28 28.0065 28 28.0127 28V27C28.0065 27 28.0003 27 27.9941 27C27.9879 27 27.9816 27 27.9754 27C27.9691 27 27.9628 27 27.9565 27C27.9502 27 27.9439 27 27.9376 27C27.9312 27 27.9249 27 27.9185 27C27.9121 27 27.9057 27 27.8993 27C27.8929 27 27.8865 27 27.88 27C27.8736 27 27.8671 27 27.8606 27C27.8542 27 27.8476 27 27.8411 27C27.8346 27 27.8281 27 27.8215 27C27.8149 27 27.8084 27 27.8018 27C27.7952 27 27.7886 27 27.7819 27C27.7753 27 27.7686 27 27.762 27C27.7553 27 27.7486 27 27.7419 27C27.7352 27 27.7285 27 27.7217 27C27.715 27 27.7082 27 27.7014 27C27.6947 27 27.6879 27 27.681 27C27.6742 27 27.6674 27 27.6605 27C27.6537 27 27.6468 27 27.6399 27C27.633 27 27.6261 27 27.6192 27C27.6123 27 27.6053 27 27.5984 27C27.5914 27 27.5844 27 27.5774 27C27.5704 27 27.5634 27 27.5564 27C27.5494 27 27.5423 27 27.5352 27C27.5282 27 27.5211 27 27.514 27C27.5069 27 27.4997 27 27.4926 27C27.4855 27 27.4783 27 27.4711 27C27.4639 27 27.4568 27 27.4495 27C27.4423 27 27.4351 27 27.4279 27C27.4206 27 27.4133 27 27.4061 27C27.3988 27 27.3915 27 27.3842 27C27.3768 27 27.3695 27 27.3622 27C27.3548 27 27.3474 27 27.34 27C27.3327 27 27.3252 27 27.3178 27C27.3104 27 27.303 27 27.2955 27C27.288 27 27.2806 27 27.2731 27C27.2656 27 27.2581 27 27.2506 27C27.243 27 27.2355 27 27.2279 27C27.2204 27 27.2128 27 27.2052 27C27.1976 27 27.19 27 27.1823 27C27.1747 27 27.1671 27 27.1594 27C27.1517 27 27.1441 27 27.1364 27C27.1287 27 27.1209 27 27.1132 27C27.1055 27 27.0977 27 27.09 27C27.0822 27 27.0744 27 27.0666 27C27.0588 27 27.051 27 27.0431 27C27.0353 27 27.0275 27 27.0196 27C27.0117 27 27.0038 27 26.9959 27C26.988 27 26.9801 27 26.9722 27C26.9642 27 26.9563 27 26.9483 27C26.9403 27 26.9324 27 26.9244 27C26.9163 27 26.9083 27 26.9003 27C26.8923 27 26.8842 27 26.8761 27C26.8681 27 26.86 27 26.8519 27C26.8438 27 26.8356 27 26.8275 27C26.8194 27 26.8112 27 26.8031 27C26.7949 27 26.7867 27 26.7785 27C26.7703 27 26.7621 27 26.7538 27C26.7456 27 26.7374 27 26.7291 27C26.7208 27 26.7125 27 26.7042 27C26.6959 27 26.6876 27 26.6793 27C26.6709 27 26.6626 27 26.6542 27C26.6459 27 26.6375 27 26.6291 27C26.6207 27 26.6123 27 26.6038 27C26.5954 27 26.587 27 26.5785 27C26.57 27 26.5616 27 26.5531 27C26.5446 27 26.5361 27 26.5275 27C26.519 27 26.5105 27 26.5019 27C26.4934 27 26.4848 27 26.4762 27C26.4676 27 26.459 27 26.4504 27C26.4417 27 26.4331 27 26.4245 27C26.4158 27 26.4071 27 26.3984 27C26.3898 27 26.3811 27 26.3723 27C26.3636 27 26.3549 27 26.3461 27C26.3374 27 26.3286 27 26.3198 27C26.3111 27 26.3023 27 26.2935 27C26.2846 27 26.2758 27 26.267 27C26.2581 27 26.2493 27 26.2404 27C26.2315 27 26.2226 27 26.2137 27C26.2048 27 26.1959 27 26.187 27C26.178 27 26.1691 27 26.1601 27C26.1512 27 26.1422 27 26.1332 27C26.1242 27 26.1152 27 26.1061 27C26.0971 27 26.0881 27 26.079 27C26.07 27 26.0609 27 26.0518 27C26.0427 27 26.0336 27 26.0245 27C26.0154 27 26.0062 27 25.9971 27C25.9879 27 25.9788 27 25.9696 27C25.9604 27 25.9512 27 25.942 27C25.9328 27 25.9236 27 25.9143 27C25.9051 27 25.8958 27 25.8866 27C25.8773 27 25.868 27 25.8587 27C25.8494 27 25.8401 27 25.8308 27C25.8214 27 25.8121 27 25.8027 27C25.7934 27 25.784 27 25.7746 27C25.7652 27 25.7558 27 25.7464 27C25.737 27 25.7276 27 25.7181 27C25.7087 27 25.6992 27 25.6897 27C25.6803 27 25.6708 27 25.6613 27C25.6518 27 25.6422 27 25.6327 27C25.6232 27 25.6136 27 25.604 27C25.5945 27 25.5849 27 25.5753 27C25.5657 27 25.5561 27 25.5465 27C25.5369 27 25.5272 27 25.5176 27C25.5079 27 25.4983 27 25.4886 27C25.4789 27 25.4692 27 25.4595 27C25.4498 27 25.4401 27 25.4303 27C25.4206 27 25.4109 27 25.4011 27C25.3913 27 25.3815 27 25.3717 27C25.362 27 25.3521 27 25.3423 27C25.3325 27 25.3227 27 25.3128 27C25.303 27 25.2931 27 25.2832 27C25.2733 27 25.2635 27 25.2536 27C25.2436 27 25.2337 27 25.2238 27C25.2139 27 25.2039 27 25.194 27C25.184 27 25.174 27 25.164 27C25.154 27 25.144 27 25.134 27C25.124 27 25.114 27 25.1039 27C25.0939 27 25.0838 27 25.0737 27C25.0637 27 25.0536 27 25.0435 27C25.0334 27 25.0233 27 25.0132 27C25.003 27 24.9929 27 24.9827 27C24.9726 27 24.9624 27 24.9522 27C24.942 27 24.9319 27 24.9216 27C24.9114 27 24.9012 27 24.891 27C24.8807 27 24.8705 27 24.8602 27C24.85 27 24.8397 27 24.8294 27C24.8191 27 24.8088 27 24.7985 27C24.7882 27 24.7779 27 24.7675 27C24.7572 27 24.7468 27 24.7365 27C24.7261 27 24.7157 27 24.7053 27C24.6949 27 24.6845 27 24.6741 27C24.6637 27 24.6532 27 24.6428 27C24.6323 27 24.6219 27 24.6114 27C24.6009 27 24.5904 27 24.5799 27C24.5694 27 24.5589 27 24.5484 27C24.5379 27 24.5273 27 24.5168 27C24.5062 27 24.4957 27 24.4851 27C24.4745 27 24.4639 27 24.4533 27C24.4427 27 24.4321 27 24.4215 27C24.4108 27 24.4002 27 24.3895 27C24.3789 27 24.3682 27 24.3575 27C24.3469 27 24.3362 27 24.3255 27C24.3148 27 24.304 27 24.2933 27C24.2826 27 24.2718 27 24.2611 27C24.2503 27 24.2396 27 24.2288 27C24.218 27 24.2072 27 24.1964 27C24.1856 27 24.1748 27 24.164 27C24.1531 27 24.1423 27 24.1314 27C24.1206 27 24.1097 27 24.0988 27C24.0879 27 24.077 27 24.0661 27C24.0552 27 24.0443 27 24.0334 27C24.0225 27 24.0115 27 24.0006 27C23.9896 27 23.9786 27 23.9677 27C23.9567 27 23.9457 27 23.9347 27C23.9237 27 23.9127 27 23.9017 27C23.8906 27 23.8796 27 23.8685 27C23.8575 27 23.8464 27 23.8353 27C23.8243 27 23.8132 27 23.8021 27C23.791 27 23.7799 27 23.7688 27C23.7576 27 23.7465 27 23.7353 27C23.7242 27 23.713 27 23.7019 27C23.6907 27 23.6795 27 23.6683 27C23.6571 27 23.6459 27 23.6347 27C23.6235 27 23.6123 27 23.601 27C23.5898 27 23.5785 27 23.5673 27C23.556 27 23.5447 27 23.5334 27C23.5222 27 23.5109 27 23.4995 27C23.4882 27 23.4769 27 23.4656 27C23.4542 27 23.4429 27 23.4315 27C23.4202 27 23.4088 27 23.3974 27C23.3861 27 23.3747 27 23.3633 27C23.3519 27 23.3404 27 23.329 27C23.3176 27 23.3062 27 23.2947 27C23.2833 27 23.2718 27 23.2603 27C23.2489 27 23.2374 27 23.2259 27C23.2144 27 23.2029 27 23.1914 27C23.1799 27 23.1683 27 23.1568 27C23.1453 27 23.1337 27 23.1222 27C23.1106 27 23.099 27 23.0874 27C23.0759 27 23.0643 27 23.0527 27C23.0411 27 23.0294 27 23.0178 27C23.0062 27 22.9946 27 22.9829 27C22.9713 27 22.9596 27 22.9479 27C22.9363 27 22.9246 27 22.9129 27C22.9012 27 22.8895 27 22.8778 27C22.8661 27 22.8544 27 22.8426 27C22.8309 27 22.8191 27 22.8074 27C22.7956 27 22.7839 27 22.7721 27C22.7603 27 22.7485 27 22.7367 27C22.7249 27 22.7131 27 22.7013 27C22.6895 27 22.6777 27 22.6658 27C22.654 27 22.6421 27 22.6303 27C22.6184 27 22.6065 27 22.5946 27C22.5828 27 22.5709 27 22.559 27C22.5471 27 22.5352 27 22.5232 27C22.5113 27 22.4994 27 22.4874 27C22.4755 27 22.4635 27 22.4516 27C22.4396 27 22.4276 27 22.4156 27C22.4037 27 22.3917 27 22.3797 27C22.3676 27 22.3556 27 22.3436 27C22.3316 27 22.3195 27 22.3075 27C22.2955 27 22.2834 27 22.2713 27C22.2593 27 22.2472 27 22.2351 27C22.223 27 22.2109 27 22.1988 27C22.1867 27 22.1746 27 22.1625 27C22.1503 27 22.1382 27 22.1261 27C22.1139 27 22.1018 27 22.0896 27C22.0774 27 22.0653 27 22.0531 27C22.0409 27 22.0287 27 22.0165 27C22.0043 27 21.9921 27 21.9798 27C21.9676 27 21.9554 27 21.9431 27C21.9309 27 21.9186 27 21.9064 27C21.8941 27 21.8819 27 21.8696 27C21.8573 27 21.845 27 21.8327 27C21.8204 27 21.8081 27 21.7958 27C21.7835 27 21.7711 27 21.7588 27C21.7464 27 21.7341 27 21.7217 27C21.7094 27 21.697 27 21.6846 27C21.6723 27 21.6599 27 21.6475 27C21.6351 27 21.6227 27 21.6103 27C21.5979 27 21.5854 27 21.573 27C21.5606 27 21.5481 27 21.5357 27C21.5232 27 21.5108 27 21.4983 27C21.4859 27 21.4734 27 21.4609 27C21.4484 27 21.4359 27 21.4234 27C21.4109 27 21.3984 27 21.3859 27C21.3733 27 21.3608 27 21.3483 27C21.3357 27 21.3232 27 21.3106 27C21.2981 27 21.2855 27 21.2729 27C21.2604 27 21.2478 27 21.2352 27C21.2226 27 21.21 27 21.1974 27C21.1848 27 21.1721 27 21.1595 27C21.1469 27 21.1343 27 21.1216 27C21.109 27 21.0963 27 21.0836 27C21.071 27 21.0583 27 21.0456 27C21.033 27 21.0203 27 21.0076 27C20.9949 27 20.9822 27 20.9695 27C20.9567 27 20.944 27 20.9313 27C20.9186 27 20.9058 27 20.8931 27C20.8803 27 20.8676 27 20.8548 27C20.842 27 20.8293 27 20.8165 27C20.8037 27 20.7909 27 20.7781 27C20.7653 27 20.7525 27 20.7397 27C20.7269 27 20.7141 27 20.7012 27C20.6884 27 20.6756 27 20.6627 27C20.6499 27 20.637 27 20.6242 27C20.6113 27 20.5984 27 20.5855 27C20.5727 27 20.5598 27 20.5469 27C20.534 27 20.5211 27 20.5082 27C20.4953 27 20.4823 27 20.4694 27C20.4565 27 20.4436 27 20.4306 27C20.4177 27 20.4047 27 20.3918 27C20.3788 27 20.3658 27 20.3529 27C20.3399 27 20.3269 27 20.3139 27C20.3009 27 20.2879 27 20.2749 27C20.2619 27 20.2489 27 20.2359 27C20.2229 27 20.2098 27 20.1968 27C20.1838 27 20.1707 27 20.1577 27C20.1446 27 20.1316 27 20.1185 27C20.1054 27 20.0924 27 20.0793 27C20.0662 27 20.0531 27 20.04 27C20.0269 27 20.0138 27 20.0007 27C19.9876 27 19.9745 27 19.9613 27C19.9482 27 19.9351 27 19.922 27C19.9088 27 19.8957 27 19.8825 27C19.8694 27 19.8562 27 19.843 27C19.8299 27 19.8167 27 19.8035 27C19.7903 27 19.7771 27 19.7639 27C19.7507 27 19.7375 27 19.7243 27C19.7111 27 19.6979 27 19.6847 27C19.6714 27 19.6582 27 19.645 27C19.6317 27 19.6185 27 19.6052 27C19.592 27 19.5787 27 19.5654 27C19.5522 27 19.5389 27 19.5256 27C19.5123 27 19.499 27 19.4857 27C19.4725 27 19.4592 27 19.4458 27C19.4325 27 19.4192 27 19.4059 27C19.3926 27 19.3792 27 19.3659 27C19.3526 27 19.3392 27 19.3259 27C19.3125 27 19.2992 27 19.2858 27C19.2725 27 19.2591 27 19.2457 27C19.2323 27 19.219 27 19.2056 27C19.1922 27 19.1788 27 19.1654 27C19.152 27 19.1386 27 19.1252 27C19.1117 27 19.0983 27 19.0849 27C19.0715 27 19.058 27 19.0446 27C19.0312 27 19.0177 27 19.0043 27C18.9908 27 18.9773 27 18.9639 27C18.9504 27 18.9369 27 18.9235 27C18.91 27 18.8965 27 18.883 27C18.8695 27 18.856 27 18.8425 27C18.829 27 18.8155 27 18.802 27C18.7885 27 18.775 27 18.7614 27C18.7479 27 18.7344 27 18.7209 27C18.7073 27 18.6938 27 18.6802 27C18.6667 27 18.6531 27 18.6396 27C18.626 27 18.6124 27 18.5988 27C18.5853 27 18.5717 27 18.5581 27C18.5445 27 18.5309 27 18.5173 27C18.5037 27 18.4901 27 18.4765 27C18.4629 27 18.4493 27 18.4357 27C18.4221 27 18.4084 27 18.3948 27C18.3812 27 18.3675 27 18.3539 27C18.3403 27 18.3266 27 18.313 27C18.2993 27 18.2856 27 18.272 27C18.2583 27 18.2446 27 18.231 27C18.2173 27 18.2036 27 18.1899 27C18.1762 27 18.1626 27 18.1489 27C18.1352 27 18.1215 27 18.1078 27C18.094 27 18.0803 27 18.0666 27C18.0529 27 18.0392 27 18.0254 27C18.0117 27 17.998 27 17.9842 27C17.9705 27 17.9568 27 17.943 27C17.9293 27 17.9155 27 17.9017 27C17.888 27 17.8742 27 17.8605 27C17.8467 27 17.8329 27 17.8191 27C17.8053 27 17.7916 27 17.7778 27C17.764 27 17.7502 27 17.7364 27C17.7226 27 17.7088 27 17.695 27C17.6812 27 17.6674 27 17.6535 27C17.6397 27 17.6259 27 17.6121 27C17.5982 27 17.5844 27 17.5706 27C17.5567 27 17.5429 27 17.529 27C17.5152 27 17.5013 27 17.4875 27C17.4736 27 17.4598 27 17.4459 27C17.432 27 17.4181 27 17.4043 27C17.3904 27 17.3765 27 17.3626 27C17.3487 27 17.3349 27 17.321 27C17.3071 27 17.2932 27 17.2793 27C17.2654 27 17.2515 27 17.2375 27C17.2236 27 17.2097 27 17.1958 27C17.1819 27 17.168 27 17.154 27C17.1401 27 17.1262 27 17.1122 27C17.0983 27 17.0843 27 17.0704 27C17.0565 27 17.0425 27 17.0286 27C17.0146 27 17.0006 27 16.9867 27C16.9727 27 16.9587 27 16.9448 27C16.9308 27 16.9168 27 16.9028 27C16.8889 27 16.8749 27 16.8609 27C16.8469 27 16.8329 27 16.8189 27C16.8049 27 16.7909 27 16.7769 27C16.7629 27 16.7489 27 16.7349 27C16.7209 27 16.7069 27 16.6929 27C16.6788 27 16.6648 27 16.6508 27C16.6368 27 16.6227 27 16.6087 27C16.5947 27 16.5806 27 16.5666 27C16.5526 27 16.5385 27 16.5245 27C16.5104 27 16.4964 27 16.4823 27C16.4683 27 16.4542 27 16.4401 27C16.4261 27 16.412 27 16.3979 27C16.3839 27 16.3698 27 16.3557 27C16.3416 27 16.3276 27 16.3135 27C16.2994 27 16.2853 27 16.2712 27C16.2571 27 16.243 27 16.2289 27C16.2148 27 16.2007 27 16.1866 27C16.1725 27 16.1584 27 16.1443 27C16.1302 27 16.1161 27 16.102 27C16.0878 27 16.0737 27 16.0596 27C16.0455 27 16.0314 27 16.0172 27C16.0031 27 15.989 27 15.9748 27C15.9607 27 15.9466 27 15.9324 27C15.9183 27 15.9041 27 15.89 27C15.8758 27 15.8617 27 15.8475 27C15.8334 27 15.8192 27 15.8051 27C15.7909 27 15.7767 27 15.7626 27C15.7484 27 15.7342 27 15.7201 27C15.7059 27 15.6917 27 15.6775 27C15.6634 27 15.6492 27 15.635 27C15.6208 27 15.6066 27 15.5924 27C15.5783 27 15.5641 27 15.5499 27C15.5357 27 15.5215 27 15.5073 27C15.4931 27 15.4789 27 15.4647 27C15.4505 27 15.4363 27 15.4221 27C15.4079 27 15.3937 27 15.3794 27C15.3652 27 15.351 27 15.3368 27C15.3226 27 15.3084 27 15.2941 27C15.2799 27 15.2657 27 15.2515 27C15.2372 27 15.223 27 15.2088 27C15.1945 27 15.1803 27 15.1661 27C15.1518 27 15.1376 27 15.1233 27C15.1091 27 15.0949 27 15.0806 27C15.0664 27 15.0521 27 15.0379 27C15.0236 27 15.0094 27 14.9951 27C14.9809 27 14.9666 27 14.9523 27C14.9381 27 14.9238 27 14.9096 27C14.8953 27 14.881 27 14.8668 27C14.8525 27 14.8382 27 14.824 27C14.8097 27 14.7954 27 14.7812 27C14.7669 27 14.7526 27 14.7383 27C14.7241 27 14.7098 27 14.6955 27C14.6812 27 14.6669 27 14.6526 27C14.6384 27 14.6241 27 14.6098 27C14.5955 27 14.5812 27 14.5669 27C14.5526 27 14.5383 27 14.524 27C14.5098 27 14.4955 27 14.4812 27C14.4669 27 14.4526 27 14.4383 27C14.424 27 14.4097 27 14.3954 27C14.3811 27 14.3667 27 14.3524 27C14.3381 27 14.3238 27 14.3095 27C14.2952 27 14.2809 27 14.2666 27C14.2523 27 14.238 27 14.2237 27C14.2093 27 14.195 27 14.1807 27C14.1664 27 14.1521 27 14.1378 27C14.1234 27 14.1091 27 14.0948 27C14.0805 27 14.0661 27 14.0518 27C14.0375 27 14.0232 27 14.0088 27C13.9945 27 13.9802 27 13.9659 27C13.9515 27 13.9372 27 13.9229 27C13.9086 27 13.8942 27 13.8799 27C13.8656 27 13.8512 27 13.8369 27C13.8226 27 13.8082 27 13.7939 27C13.7796 27 13.7652 27 13.7509 27C13.7365 27 13.7222 27 13.7079 27C13.6935 27 13.6792 27 13.6649 27C13.6505 27 13.6362 27 13.6218 27C13.6075 27 13.5931 27 13.5788 27C13.5645 27 13.5501 27 13.5358 27C13.5214 27 13.5071 27 13.4927 27C13.4784 27 13.4641 27 13.4497 27C13.4354 27 13.421 27 13.4067 27C13.3923 27 13.378 27 13.3636 27C13.3493 27 13.3349 27 13.3206 27C13.3062 27 13.2919 27 13.2775 27C13.2632 27 13.2488 27 13.2345 27C13.2201 27 13.2058 27 13.1914 27C13.1771 27 13.1627 27 13.1484 27C13.134 27 13.1197 27 13.1053 27C13.091 27 13.0766 27 13.0623 27C13.0479 27 13.0336 27 13.0192 27C13.0049 27 12.9905 27 12.9762 27C12.9618 27 12.9475 27 12.9331 27C12.9188 27 12.9044 27 12.8901 27C12.8757 27 12.8614 27 12.847 27C12.8327 27 12.8183 27 12.804 27C12.7896 27 12.7753 27 12.7609 27C12.7466 27 12.7322 27 12.7179 27C12.7035 27 12.6892 27 12.6748 27C12.6605 27 12.6461 27 12.6318 27C12.6174 27 12.6031 27 12.5887 27C12.5744 27 12.56 27 12.5457 27C12.5313 27 12.517 27 12.5027 27C12.4883 27 12.474 27 12.4596 27C12.4453 27 12.4309 27 12.4166 27C12.4022 27 12.3879 27 12.3736 27C12.3592 27 12.3449 27 12.3305 27C12.3162 27 12.3019 27 12.2875 27C12.2732 27 12.2588 27 12.2445 27C12.2302 27 12.2158 27 12.2015 27C12.1871 27 12.1728 27 12.1585 27C12.1441 27 12.1298 27 12.1155 27C12.1011 27 12.0868 27 12.0725 27C12.0581 27 12.0438 27 12.0295 27C12.0152 27 12.0008 27 11.9865 27C11.9722 27 11.9578 27 11.9435 27C11.9292 27 11.9149 27 11.9005 27C11.8862 27 11.8719 27 11.8576 27C11.8433 27 11.8289 27 11.8146 27C11.8003 27 11.786 27 11.7717 27C11.7573 27 11.743 27 11.7287 27C11.7144 27 11.7001 27 11.6858 27C11.6715 27 11.6572 27 11.6428 27C11.6285 27 11.6142 27 11.5999 27C11.5856 27 11.5713 27 11.557 27C11.5427 27 11.5284 27 11.5141 27C11.4998 27 11.4855 27 11.4712 27C11.4569 27 11.4426 27 11.4283 27C11.414 27 11.3997 27 11.3854 27C11.3712 27 11.3569 27 11.3426 27C11.3283 27 11.314 27 11.2997 27C11.2854 27 11.2712 27 11.2569 27C11.2426 27 11.2283 27 11.214 27C11.1998 27 11.1855 27 11.1712 27C11.1569 27 11.1427 27 11.1284 27C11.1141 27 11.0999 27 11.0856 27C11.0713 27 11.0571 27 11.0428 27C11.0285 27 11.0143 27 11 27C10.9858 27 10.9715 27 10.9573 27C10.943 27 10.9287 27 10.9145 27C10.9003 27 10.886 27 10.8718 27C10.8575 27 10.8433 27 10.829 27C10.8148 27 10.8005 27 10.7863 27C10.7721 27 10.7578 27 10.7436 27C10.7294 27 10.7151 27 10.7009 27C10.6867 27 10.6725 27 10.6582 27C10.644 27 10.6298 27 10.6156 27C10.6014 27 10.5871 27 10.5729 27C10.5587 27 10.5445 27 10.5303 27C10.5161 27 10.5019 27 10.4877 27C10.4735 27 10.4593 27 10.4451 27C10.4309 27 10.4167 27 10.4025 27C10.3883 27 10.3741 27 10.3599 27C10.3457 27 10.3316 27 10.3174 27C10.3032 27 10.289 27 10.2748 27C10.2607 27 10.2465 27 10.2323 27C10.2181 27 10.204 27 10.1898 27C10.1756 27 10.1615 27 10.1473 27C10.1332 27 10.119 27 10.1049 27C10.0907 27 10.0766 27 10.0624 27C10.0483 27 10.0341 27 10.02 27C10.0058 27 9.99169 27 9.97755 27C9.96342 27 9.94929 27 9.93516 27C9.92103 27 9.9069 27 9.89278 27C9.87865 27 9.86453 27 9.85042 27C9.8363 27 9.82219 27 9.80808 27C9.79397 27 9.77986 27 9.76576 27C9.75165 27 9.73755 27 9.72346 27C9.70936 27 9.69526 27 9.68118 27C9.66708 27 9.653 27 9.63891 27C9.62483 27 9.61075 27 9.59667 27C9.5826 27 9.56852 27 9.55445 27C9.54039 27 9.52632 27 9.51226 27V28Z" fill="#0047FF"/>
</svg>
