<svg width="24" height="24" viewBox="0 0 24 24" fill="none" xmlns="http://www.w3.org/2000/svg">
<path d="M2.25 2.99999H3.81C4.0343 2.99863 4.25178 3.0771 4.42353 3.22138C4.59529 3.36565 4.71012 3.56631 4.7475 3.78749L5.25 6.85499V6.89999L6.75 15.9C6.78506 16.0719 6.87932 16.2262 7.01636 16.3358C7.1534 16.4454 7.32454 16.5035 7.5 16.5H19.5C19.6713 16.505 19.8392 16.4511 19.9757 16.3474C20.1121 16.2437 20.2089 16.0964 20.25 15.93L22.5 6.92999C22.5278 6.81768 22.5293 6.70047 22.5043 6.58751C22.4792 6.47455 22.4284 6.36891 22.3558 6.27885C22.2832 6.18879 22.1907 6.11675 22.0856 6.06838C21.9805 6.02 21.8656 5.99659 21.75 5.99999H6.6375L6.225 3.54749C6.13214 2.97457 5.8379 2.45358 5.3952 2.07825C4.95249 1.70292 4.39039 1.49787 3.81 1.49999H2.25C2.05109 1.49999 1.86032 1.579 1.71967 1.71966C1.57902 1.86031 1.5 2.05107 1.5 2.24999C1.5 2.4489 1.57902 2.63966 1.71967 2.78032C1.86032 2.92097 2.05109 2.99999 2.25 2.99999ZM20.79 7.49999L18.915 15H8.1375L6.885 7.49999H20.79ZM18 18C17.555 18 17.12 18.1319 16.75 18.3792C16.38 18.6264 16.0916 18.9778 15.9213 19.3889C15.751 19.8001 15.7064 20.2525 15.7932 20.6889C15.8801 21.1254 16.0943 21.5263 16.409 21.841C16.7237 22.1556 17.1246 22.3699 17.561 22.4568C17.9975 22.5436 18.4499 22.499 18.861 22.3287C19.2722 22.1584 19.6236 21.87 19.8708 21.5C20.118 21.13 20.25 20.695 20.25 20.25C20.25 19.6532 20.0129 19.081 19.591 18.659C19.169 18.237 18.5967 18 18 18ZM18 21C17.8517 21 17.7067 20.956 17.5833 20.8736C17.46 20.7912 17.3639 20.674 17.3071 20.537C17.2503 20.4 17.2355 20.2492 17.2644 20.1037C17.2934 19.9582 17.3648 19.8245 17.4697 19.7197C17.5746 19.6148 17.7082 19.5433 17.8537 19.5144C17.9992 19.4855 18.15 19.5003 18.287 19.5571C18.4241 19.6138 18.5412 19.71 18.6236 19.8333C18.706 19.9566 18.75 20.1016 18.75 20.25C18.75 20.4489 18.671 20.6397 18.5303 20.7803C18.3897 20.921 18.1989 21 18 21ZM6.75 20.25C6.75 20.695 6.88196 21.13 7.12919 21.5C7.37643 21.87 7.72783 22.1584 8.13896 22.3287C8.5501 22.499 9.0025 22.5436 9.43895 22.4568C9.87541 22.3699 10.2763 22.1556 10.591 21.841C10.9057 21.5263 11.12 21.1254 11.2068 20.6889C11.2936 20.2525 11.249 19.8001 11.0787 19.3889C10.9084 18.9778 10.62 18.6264 10.25 18.3792C9.88002 18.1319 9.44501 18 9 18C8.40326 18 7.83097 18.237 7.40901 18.659C6.98705 19.081 6.75 19.6532 6.75 20.25ZM9.75 20.25C9.75 20.3983 9.70601 20.5433 9.6236 20.6667C9.54119 20.79 9.42406 20.8861 9.28701 20.9429C9.14997 20.9997 8.99917 21.0145 8.85368 20.9856C8.7082 20.9566 8.57456 20.8852 8.46967 20.7803C8.36478 20.6754 8.29335 20.5418 8.26441 20.3963C8.23547 20.2508 8.25033 20.1 8.30709 19.963C8.36386 19.8259 8.45999 19.7088 8.58332 19.6264C8.70666 19.544 8.85166 19.5 9 19.5C9.19891 19.5 9.38968 19.579 9.53033 19.7197C9.67098 19.8603 9.75 20.0511 9.75 20.25Z" fill="black"/>
</svg>
