<svg width="64" height="40" viewBox="0 0 64 40" fill="none" xmlns="http://www.w3.org/2000/svg">
<path d="M6.25 26.25C9.70178 26.25 12.5 23.4518 12.5 20C12.5 16.5482 9.70178 13.75 6.25 13.75C2.79822 13.75 0 16.5482 0 20C0 23.4518 2.79822 26.25 6.25 26.25Z" fill="#F93232"/>
<path d="M13.75 13.75C12.3463 13.75 11.055 14.2188 10.0125 15H10V15.0087C9.7525 15.195 9.525 15.405 9.30812 15.625H10.6919C10.8844 15.8206 11.0619 16.03 11.2262 16.25H8.76875C8.6173 16.4497 8.47809 16.6584 8.35187 16.875H11.6419C11.7594 17.0775 11.87 17.2838 11.9656 17.5H8.03375C7.94394 17.7039 7.86528 17.9125 7.79813 18.125H12.2006C12.2656 18.3288 12.3169 18.5381 12.3619 18.75H7.635C7.59312 18.955 7.55813 19.1625 7.53688 19.375H12.4625C12.4869 19.58 12.5 19.7881 12.5 20H7.5C7.5 20.2119 7.51688 20.4187 7.5375 20.625H12.4637C12.44 20.8369 12.4056 21.045 12.3625 21.25H7.63563C7.67875 21.4631 7.73437 21.6706 7.79875 21.875H12.2012C12.1341 22.0875 12.0554 22.2961 11.9656 22.5H8.03375C8.12813 22.715 8.23437 22.9237 8.35187 23.125H11.6419C11.5155 23.3417 11.3758 23.5504 11.2238 23.75H8.76875C8.935 23.97 9.11438 24.1794 9.3075 24.375H10.6919C10.4767 24.5972 10.2455 24.8031 10 24.9913C11.0794 25.8083 12.3962 26.2503 13.75 26.25C17.2019 26.25 20 23.4513 20 20C20 16.5488 17.2019 13.75 13.75 13.75Z" fill="#FED049"/>
<g clip-path="url(#clip0_204_2274)">
<path d="M38.6641 25.7461L40.6958 14.3175H43.8704L41.9022 25.7461H38.6641Z" fill="#3C58BF"/>
<path d="M38.6641 25.7461L41.2672 14.3175H43.8704L41.9022 25.7461H38.6641Z" fill="#293688"/>
<path d="M53.394 14.4445C52.7591 14.1905 51.7432 13.9365 50.4733 13.9365C47.2987 13.9365 45.013 15.5238 45.013 17.8095C45.013 19.5238 46.6003 20.4127 47.8702 20.9841C49.14 21.5556 49.521 21.9365 49.521 22.4445C49.521 23.2064 48.5051 23.5873 47.6162 23.5873C46.3464 23.5873 45.6479 23.3968 44.5686 22.9524L44.1241 22.7619L43.6797 25.3651C44.4416 25.6826 45.8384 26 47.2987 26C50.6638 26 52.886 24.4127 52.886 22C52.886 20.6667 52.0606 19.6508 50.1559 18.8254C49.013 18.254 48.3146 17.9365 48.3146 17.3651C48.3146 16.8572 48.886 16.3492 50.1559 16.3492C51.2352 16.3492 51.9971 16.5397 52.5686 16.7937L52.886 16.9206L53.394 14.4445Z" fill="#3C58BF"/>
<path d="M53.394 14.4445C52.7591 14.1905 51.7432 13.9365 50.4733 13.9365C47.2987 13.9365 45.5844 15.5238 45.5844 17.8095C45.5844 19.5238 46.6003 20.4127 47.8702 20.9841C49.14 21.5556 49.521 21.9365 49.521 22.4445C49.521 23.2064 48.5051 23.5873 47.6162 23.5873C46.3464 23.5873 45.6479 23.3968 44.5686 22.9524L44.1241 22.7619L43.6797 25.3651C44.4416 25.6826 45.8384 26 47.2987 26C50.6638 26 52.886 24.4127 52.886 22C52.886 20.6667 52.0606 19.6508 50.1559 18.8254C49.013 18.254 48.3146 17.9365 48.3146 17.3651C48.3146 16.8572 48.886 16.3492 50.1559 16.3492C51.2352 16.3492 51.9971 16.5397 52.5686 16.7937L52.886 16.9206L53.394 14.4445Z" fill="#293688"/>
<path d="M58.858 14.3175C58.0961 14.3175 57.5247 14.381 57.2072 15.1429L52.4453 25.7461H55.8739L56.5088 23.8413H60.5723L60.9533 25.7461H64.0009L61.3342 14.3175H58.858ZM57.3977 21.9366C57.5882 21.3651 58.6675 18.5715 58.6675 18.5715C58.6675 18.5715 58.9215 17.8731 59.112 17.4286L59.3025 18.508C59.3025 18.508 59.9374 21.3651 60.0644 22H57.3977V21.9366Z" fill="#3C58BF"/>
<path d="M59.6199 14.3175C58.858 14.3175 58.2866 14.381 57.9691 15.1429L52.4453 25.7461H55.8739L56.5088 23.8413H60.5723L60.9533 25.7461H64.0009L61.3342 14.3175H59.6199ZM57.3977 21.9366C57.6517 21.3016 58.6675 18.5715 58.6675 18.5715C58.6675 18.5715 58.9215 17.8731 59.112 17.4286L59.3025 18.508C59.3025 18.508 59.9374 21.3651 60.0644 22H57.3977V21.9366Z" fill="#293688"/>
<path d="M32.8244 22.3175L32.5069 20.6667C31.9355 18.7619 30.0942 16.6667 28.0625 15.6508L30.9196 25.8096H34.3482L39.4911 14.381H36.0625L32.8244 22.3175Z" fill="#3C58BF"/>
<path d="M32.8244 22.3175L32.5069 20.6667C31.9355 18.7619 30.0942 16.6667 28.0625 15.6508L30.9196 25.8096H34.3482L39.4911 14.381H36.6974L32.8244 22.3175Z" fill="#293688"/>
<path d="M24 14.3175L24.5714 14.4445C28.6349 15.3969 31.4286 17.8096 32.5079 20.6667L31.3651 15.2699C31.1746 14.508 30.6032 14.3175 29.9048 14.3175H24Z" fill="#FFBC00"/>
<path d="M24 14.3175C28.0635 15.2699 31.4286 17.7461 32.5079 20.6032L31.4286 16.0953C31.2381 15.3334 30.6032 14.8889 29.9048 14.8889L24 14.3175Z" fill="#F7981D"/>
<path d="M24 14.3175C28.0635 15.2699 31.4286 17.7461 32.5079 20.6032L31.746 18.127C31.5556 17.3651 31.3016 16.6032 30.4127 16.2858L24 14.3175Z" fill="#ED7C00"/>
<path d="M36.0019 21.9365L33.8432 19.7778L32.8273 22.1905L32.5734 20.6032C32.0019 18.6985 30.1607 16.6032 28.1289 15.5873L30.986 25.7461H34.4146L36.0019 21.9365ZM41.9067 25.7461L39.1765 22.9524L38.6686 25.7461H41.9067ZM49.2083 21.8096C49.4622 22.0635 49.5892 22.254 49.5257 22.508C49.5257 23.2699 48.5099 23.6508 47.621 23.6508C46.3511 23.6508 45.6527 23.4604 44.5734 23.0159L44.1289 22.8254L43.6845 25.4286C44.4464 25.7461 45.8432 26.0635 47.3035 26.0635C49.3353 26.0635 50.986 25.4921 51.9384 24.4762L49.2083 21.8096ZM52.8908 25.7461H55.8749L56.5099 23.8413H60.5733L60.9543 25.7461H64.0019L62.9226 21.1112L59.113 17.4286L59.3035 18.4445C59.3035 18.4445 59.9384 21.3016 60.0654 21.9365H57.3987C57.6527 21.3016 58.6686 18.5715 58.6686 18.5715C58.6686 18.5715 58.9226 17.8731 59.113 17.4286" fill="#051244"/>
</g>
<defs>
<clipPath id="clip0_204_2274">
<rect width="40" height="40" fill="white" transform="translate(24)"/>
</clipPath>
</defs>
</svg>
