<svg width="40" height="40" viewBox="0 0 40 40" fill="none" xmlns="http://www.w3.org/2000/svg">
<path d="M18.6691 19.7859V24.413H17.2007V12.9866H21.0936C22.0802 12.9866 22.9215 13.3155 23.6098 13.9733C24.3135 14.631 24.6653 15.4341 24.6653 16.3824C24.6653 17.3538 24.3135 18.1568 23.6098 18.8069C22.9291 19.457 22.0879 19.7782 21.0936 19.7782H18.6691V19.7859ZM18.6691 14.3939V18.3786H21.1242C21.7054 18.3786 22.195 18.1798 22.5773 17.7897C22.9674 17.3996 23.1662 16.9255 23.1662 16.3901C23.1662 15.8623 22.9674 15.3958 22.5773 15.0058C22.1949 14.6004 21.7131 14.4016 21.1242 14.4016H18.6691V14.3939ZM28.5047 16.3366C29.5907 16.3366 30.4473 16.6272 31.0744 17.2084C31.7016 17.7897 32.0151 18.5851 32.0151 19.5947V24.413H30.6155V23.327H30.5544C29.9501 24.2219 29.1394 24.6655 28.1299 24.6655C27.2657 24.6655 26.5467 24.413 25.9655 23.9006C25.3842 23.3882 25.0936 22.7534 25.0936 21.9886C25.0936 21.1779 25.3995 20.5355 26.0114 20.0612C26.6233 19.5795 27.4416 19.3423 28.4588 19.3423C29.3307 19.3423 30.0497 19.503 30.6079 19.8241V19.4877C30.6079 18.9752 30.4091 18.547 30.0037 18.1875C29.5983 17.828 29.1242 17.6521 28.5812 17.6521C27.7628 17.6521 27.1127 17.9963 26.6385 18.6923L25.3459 17.8816C26.0572 16.849 27.1127 16.3366 28.5047 16.3366ZM26.608 22.0115C26.608 22.3939 26.7686 22.7152 27.0974 22.9675C27.4187 23.2199 27.8011 23.3499 28.237 23.3499C28.8565 23.3499 29.4072 23.1205 29.889 22.6616C30.3709 22.2027 30.6156 21.6673 30.6156 21.0478C30.1567 20.6884 29.5219 20.5048 28.7036 20.5048C28.107 20.5048 27.6099 20.6501 27.2122 20.933C26.8068 21.2313 26.608 21.5909 26.608 22.0115ZM39.9999 16.5889L35.1051 27.847H33.5907L35.4109 23.9082L32.1834 16.5889H33.7819L36.1069 22.2027H36.1376L38.4014 16.5889H39.9999Z" fill="#383E41"/>
<path d="M12.706 17.4753H6.55078V19.9992L10.0957 20C9.95195 20.8398 9.48922 21.5556 8.78023 22.0329V22.0334L8.78102 22.0329L8.71719 23.5414L10.8912 23.6696L10.8903 23.6704C12.1224 22.5301 12.8284 20.8444 12.8284 18.8528C12.8288 18.3909 12.7879 17.9299 12.706 17.4753Z" fill="#0085F7"/>
<path d="M8.78102 22.0329L8.78024 22.0334C8.19297 22.4292 7.4368 22.6608 6.55234 22.6608C4.84297 22.6608 3.39289 21.509 2.87359 19.9564H2.87336L2.87359 19.9572L1.05867 19.6698L0.697266 21.6456C1.77578 23.7853 3.99203 25.2535 6.55242 25.2535C8.32172 25.2535 9.8082 24.6718 10.8904 23.6703C10.8907 23.6701 10.891 23.6698 10.8913 23.6695L8.78102 22.0329Z" fill="#00A94B"/>
<path d="M2.66844 18.7036C2.66844 18.2677 2.74109 17.8463 2.87344 17.4501L2.30672 15.7613H0.696719C0.250859 16.6463 0 17.6451 0 18.7036C0 19.7621 0.251641 20.7609 0.696719 21.6459L0.697031 21.6456L2.87344 19.9571C2.73791 19.5531 2.66868 19.1298 2.66844 18.7036Z" fill="#FFBB00"/>
<path d="M6.55225 12.153C3.9924 12.153 1.77521 13.6214 0.696777 15.7614L2.87342 17.4502C3.39271 15.8976 4.84279 14.7458 6.55217 14.7458C7.51811 14.7458 8.38318 15.0785 9.06615 15.7286L10.9362 13.8602C9.80045 12.8023 8.31975 12.153 6.55225 12.153Z" fill="#FF4031"/>
</svg>
