<svg width="24" height="24" viewBox="0 0 24 24" fill="none" xmlns="http://www.w3.org/2000/svg">
<g clip-path="url(#clip0_468_124)">
<path d="M23.9766 7.05607C23.9204 5.78082 23.7142 4.90418 23.4187 4.14447C23.114 3.33811 22.6451 2.61618 22.031 2.01602C21.4307 1.40652 20.704 0.932901 19.907 0.632936C19.143 0.337566 18.2708 0.131276 16.9956 0.0751084C15.7109 0.0140652 15.303 0 12.0446 0C8.78613 0 8.37829 0.0140652 7.0983 0.0703262C5.8231 0.126587 4.94641 0.332971 4.18694 0.628154C3.38034 0.932901 2.65842 1.40174 2.05826 2.01602C1.44876 2.61614 0.975372 3.34284 0.675173 4.13987C0.379802 4.90418 0.173559 5.77613 0.117345 7.05128C0.0563485 8.33605 0.0422363 8.7439 0.0422363 12.0023C0.0422363 15.2608 0.0563485 15.6687 0.112563 16.9486C0.168824 18.2239 0.375208 19.1005 0.670625 19.8602C0.975372 20.6666 1.44876 21.3885 2.05826 21.9887C2.65842 22.5982 3.38512 23.0718 4.18215 23.3718C4.94637 23.6671 5.81832 23.8734 7.09375 23.9296C8.3735 23.986 8.78158 23.9999 12.04 23.9999C15.2985 23.9999 15.7063 23.986 16.9863 23.9296C18.2615 23.8734 19.1382 23.6672 19.8977 23.3718C20.6953 23.0633 21.4198 22.5917 22.0245 21.987C22.6293 21.3823 23.101 20.6579 23.4094 19.8602C23.7046 19.096 23.9111 18.2238 23.9673 16.9486C24.0235 15.6687 24.0376 15.2608 24.0376 12.0023C24.0376 8.7439 24.0328 8.336 23.9766 7.05607ZM21.8154 16.8549C21.7637 18.027 21.5668 18.6599 21.4028 19.0819C20.9995 20.1274 20.1697 20.9572 19.1241 21.3605C18.7021 21.5246 18.0646 21.7215 16.8971 21.7729C15.6312 21.8294 15.2516 21.8432 12.0494 21.8432C8.84713 21.8432 8.46272 21.8294 7.2014 21.7729C6.0293 21.7215 5.39636 21.5246 4.9744 21.3605C4.45413 21.1682 3.98055 20.8634 3.5961 20.4649C3.19759 20.0758 2.89284 19.607 2.70052 19.0866C2.53643 18.6647 2.33956 18.027 2.28813 16.8596C2.23168 15.5938 2.2178 15.2139 2.2178 12.0117C2.2178 8.80944 2.23168 8.42504 2.28813 7.16395C2.33956 5.99184 2.53643 5.35891 2.70052 4.93695C2.89284 4.41644 3.19759 3.94296 3.60088 3.55841C3.98984 3.1599 4.45868 2.85515 4.97919 2.66307C5.40114 2.49897 6.03886 2.30206 7.20618 2.25044C8.47206 2.19418 8.85191 2.18011 12.0539 2.18011C15.2609 2.18011 15.6405 2.19418 16.9019 2.25044C18.074 2.30211 18.7069 2.49893 19.1289 2.66302C19.6491 2.85515 20.1228 3.1599 20.5072 3.55841C20.9057 3.9476 21.2104 4.41644 21.4028 4.93695C21.5668 5.35891 21.7637 5.99639 21.8153 7.16395C21.8716 8.42982 21.8857 8.80944 21.8857 12.0117C21.8857 15.2139 21.8716 15.589 21.8154 16.8549Z" fill="#353535"/>
<path d="M12.0444 5.83734C8.64072 5.83734 5.87915 8.59873 5.87915 12.0026C5.87915 15.4065 8.64072 18.1679 12.0444 18.1679C15.4482 18.1679 18.2097 15.4065 18.2097 12.0026C18.2097 8.59873 15.4482 5.83734 12.0444 5.83734ZM12.0444 16.0018C9.83627 16.0018 8.0451 14.2109 8.0451 12.0026C8.0451 9.79427 9.83627 8.00339 12.0444 8.00339C14.2527 8.00339 16.0436 9.79427 16.0436 12.0026C16.0436 14.2109 14.2527 16.0018 12.0444 16.0018ZM19.8929 5.59355C19.8929 6.38842 19.2484 7.03289 18.4534 7.03289C17.6586 7.03289 17.0141 6.38842 17.0141 5.59355C17.0141 4.79858 17.6586 4.1543 18.4534 4.1543C19.2484 4.1543 19.8929 4.79853 19.8929 5.59355Z" fill="#353535"/>
</g>
<defs>
<clipPath id="clip0_468_124">
<rect width="24" height="24" fill="white"/>
</clipPath>
</defs>
</svg>
