<svg width="24" height="24" viewBox="0 0 24 24" fill="none" xmlns="http://www.w3.org/2000/svg">
<path d="M12 1.2002C8.0299 1.2002 4.79998 4.43011 4.79998 8.40019C4.79998 10.3576 5.61142 12.2469 7.01998 13.5777C7.22803 13.7796 7.3936 14.021 7.50695 14.2878C7.62029 14.5546 7.67913 14.8414 7.67998 15.1312V17.7602C7.67998 18.3372 7.90462 18.8796 8.31286 19.2873C8.54398 19.5187 8.82094 19.6833 9.11998 19.7892V20.6402C9.11998 21.8313 10.0889 22.8002 11.28 22.8002H12.72C13.9111 22.8002 14.88 21.8313 14.88 20.6402V19.7892C15.1793 19.6833 15.4562 19.5184 15.6871 19.2873C15.8884 19.0873 16.048 18.8493 16.1566 18.5872C16.2653 18.3251 16.3208 18.044 16.32 17.7602C16.32 16.3416 16.3255 15.3943 16.3358 15.1308C16.3363 14.8432 16.3944 14.5587 16.5066 14.294C16.6189 14.0293 16.783 13.7897 16.9893 13.5895C18.4149 12.2188 19.2 10.3759 19.2 8.40019C19.2 4.43011 15.9701 1.2002 12 1.2002ZM12.72 21.3602H11.28C10.883 21.3602 10.56 21.0372 10.56 20.6402V19.9202H13.44V20.6402C13.44 21.0372 13.1169 21.3602 12.72 21.3602ZM14.669 18.2692C14.5337 18.4038 14.3508 18.4796 14.16 18.4802H9.83998C9.65038 18.4802 9.4651 18.4032 9.33094 18.2692C9.19641 18.1339 9.12062 17.951 9.11998 17.7602V17.0402H14.8805L14.88 17.7602C14.88 17.9498 14.8029 18.1351 14.669 18.2692ZM15.9902 12.5529C15.2945 13.224 14.8958 14.1638 14.8965 15.101C14.8914 15.2673 14.8883 15.4338 14.8874 15.6002H12.72V10.8583L15.389 8.18923C15.6703 7.90795 15.6703 7.45243 15.389 7.17115C15.1077 6.88987 14.6522 6.88987 14.3709 7.17115L12 9.54211L9.62902 7.17115C9.34774 6.88987 8.89222 6.88987 8.61094 7.17115C8.32966 7.45243 8.32966 7.90795 8.61094 8.18923L11.28 10.8583V15.6002H9.11998V15.1305C9.11855 14.6462 9.02 14.1671 8.83017 13.7215C8.64034 13.2759 8.36307 12.8729 8.01478 12.5364C6.87022 11.4552 6.23998 9.98635 6.23998 8.40019C6.23998 5.22428 8.82406 2.6402 12 2.6402C15.1759 2.6402 17.76 5.22428 17.76 8.40019C17.76 9.98035 17.1317 11.4549 15.9902 12.5529ZM1.19998 9.12019C1.00902 9.12019 0.82589 9.04434 0.690864 8.90931C0.555837 8.77428 0.47998 8.59115 0.47998 8.40019C0.47998 8.20924 0.555837 8.0261 0.690864 7.89108C0.82589 7.75605 1.00902 7.68019 1.19998 7.68019H2.63998C2.83094 7.68019 3.01407 7.75605 3.1491 7.89108C3.28412 8.0261 3.35998 8.20924 3.35998 8.40019C3.35998 8.59115 3.28412 8.77428 3.1491 8.90931C3.01407 9.04434 2.83094 9.12019 2.63998 9.12019H1.19998ZM23.52 8.40019C23.52 8.59115 23.4441 8.77428 23.3091 8.90931C23.1741 9.04434 22.9909 9.12019 22.8 9.12019H21.36C21.169 9.12019 20.9859 9.04434 20.8509 8.90931C20.7158 8.77428 20.64 8.59115 20.64 8.40019C20.64 8.20924 20.7158 8.0261 20.8509 7.89108C20.9859 7.75605 21.169 7.68019 21.36 7.68019H22.8C22.9909 7.68019 23.1741 7.75605 23.3091 7.89108C23.4441 8.0261 23.52 8.20924 23.52 8.40019ZM3.86902 3.57116C3.96992 3.67176 4.03868 3.80005 4.06658 3.93978C4.09448 4.0795 4.08027 4.22436 4.02575 4.356C3.97122 4.48764 3.87885 4.60013 3.76032 4.67921C3.6418 4.75829 3.50246 4.80039 3.35998 4.80019C3.26542 4.80031 3.17176 4.78173 3.0844 4.74552C2.99705 4.70932 2.9177 4.6562 2.85094 4.58924L1.41094 3.14924C1.12966 2.86796 1.12966 2.41244 1.41094 2.13116C1.69222 1.84988 2.14774 1.84988 2.42902 2.13116L3.86902 3.57116ZM20.1309 4.58924C20.064 4.52241 20.011 4.44306 19.9748 4.35571C19.9386 4.26837 19.9199 4.17475 19.9199 4.08019C19.9199 3.98564 19.9386 3.89202 19.9748 3.80468C20.011 3.71733 20.064 3.63798 20.1309 3.57116L21.5709 2.13116C21.8522 1.84988 22.3077 1.84988 22.589 2.13116C22.8703 2.41244 22.8703 2.86796 22.589 3.14924L21.149 4.58924C21.0084 4.72988 20.8243 4.80019 20.64 4.80019C20.4557 4.80019 20.2716 4.72988 20.1309 4.58924ZM3.86902 12.2112C3.93591 12.278 3.98898 12.3573 4.02518 12.4447C4.06139 12.532 4.08003 12.6256 4.08003 12.7202C4.08003 12.8147 4.06139 12.9084 4.02518 12.9957C3.98898 13.0831 3.93591 13.1624 3.86902 13.2292L2.42902 14.6692C2.28838 14.8099 2.1043 14.8802 1.91998 14.8802C1.73566 14.8802 1.55158 14.8099 1.41094 14.6692C1.34405 14.6024 1.29098 14.5231 1.25478 14.4357C1.21857 14.3484 1.19994 14.2547 1.19994 14.1602C1.19994 14.0656 1.21857 13.972 1.25478 13.8847C1.29098 13.7973 1.34405 13.718 1.41094 13.6512L2.85094 12.2112C2.91776 12.1443 2.99712 12.0912 3.08446 12.055C3.17181 12.0188 3.26543 12.0001 3.35998 12.0001C3.45453 12.0001 3.54816 12.0188 3.6355 12.055C3.72284 12.0912 3.8022 12.1443 3.86902 12.2112ZM22.589 13.6512C22.6899 13.7518 22.7587 13.8801 22.7866 14.0198C22.8145 14.1595 22.8003 14.3044 22.7457 14.436C22.6912 14.5676 22.5988 14.6801 22.4803 14.7592C22.3618 14.8383 22.2225 14.8804 22.08 14.8802C21.9854 14.8803 21.8918 14.8617 21.8044 14.8255C21.717 14.7893 21.6377 14.7362 21.5709 14.6692L20.1309 13.2292C19.8497 12.948 19.8497 12.4924 20.1309 12.2112C20.4122 11.9299 20.8677 11.9299 21.149 12.2112L22.589 13.6512Z" fill="black"/>
</svg>
