<svg width="25" height="15" viewBox="0 0 25 15" fill="none" xmlns="http://www.w3.org/2000/svg">
<path d="M24.4254 6.88786C23.2357 4.83152 21.5251 3.10679 19.4784 1.90028C17.3696 0.657109 14.9539 0 12.4926 0C10.0314 0 7.61566 0.657109 5.50676 1.90028C3.46008 3.10684 1.74947 4.83152 0.559865 6.88786C0.515851 6.96397 0.492676 7.05034 0.492676 7.13826C0.492676 7.22618 0.515851 7.31255 0.559865 7.38866C1.74947 9.44505 3.46008 11.1698 5.50676 12.3762C7.61571 13.6195 10.0314 14.2766 12.4926 14.2766C14.9539 14.2766 17.3696 13.6195 19.4784 12.3762C21.5251 11.1697 23.2357 9.44505 24.4254 7.38866C24.4694 7.31255 24.4926 7.22618 24.4926 7.13826C24.4926 7.05034 24.4694 6.96397 24.4254 6.88786ZM18.9706 11.5148C17.0154 12.6673 14.7754 13.2765 12.4926 13.2765C10.2098 13.2765 7.9697 12.6673 6.01458 11.5148C4.19956 10.4448 2.66942 8.93561 1.57412 7.13821C2.66942 5.34086 4.19956 3.83164 6.01458 2.76168C7.9697 1.60915 10.2098 0.999932 12.4926 0.999932C14.7754 0.999932 17.0154 1.60915 18.9706 2.76168C20.7856 3.83164 22.3157 5.34081 23.411 7.13821C22.3157 8.93561 20.7856 10.4448 18.9706 11.5148Z" fill="black"/>
<path d="M12.4924 2.64535C10.015 2.64535 7.99951 4.6608 7.99951 7.13821C7.99951 9.61562 10.015 11.6311 12.4924 11.6311C14.9698 11.6311 16.9853 9.61562 16.9853 7.13821C16.9853 4.66085 14.9697 2.64535 12.4924 2.64535ZM12.4924 10.6311C10.5664 10.6311 8.99949 9.06424 8.99949 7.13821C8.99949 5.21224 10.5664 3.64533 12.4924 3.64533C14.4184 3.64533 15.9853 5.21224 15.9853 7.13821C15.9853 9.06424 14.4184 10.6311 12.4924 10.6311Z" fill="black"/>
</svg>
