<svg width="101" height="18" viewBox="0 0 101 18" fill="none" xmlns="http://www.w3.org/2000/svg">
    <path d="M0.948 8.456H4.596C5.38 8.456 6.028 8.628 6.54 8.972C7.06 9.316 7.32 9.856 7.32 10.592C7.32 11.016 7.204 11.396 6.972 11.732C6.748 12.06 6.444 12.292 6.06 12.428C6.588 12.548 6.992 12.796 7.272 13.172C7.56 13.548 7.704 14.02 7.704 14.588C7.704 16.196 6.624 17 4.464 17H0.948V8.456ZM2.052 9.416V12.116H4.08C4.312 12.116 4.508 12.112 4.668 12.104C4.836 12.088 5.024 12.056 5.232 12.008C5.44 11.96 5.604 11.892 5.724 11.804C5.852 11.708 5.96 11.572 6.048 11.396C6.144 11.22 6.192 11.008 6.192 10.76C6.192 10.512 6.152 10.304 6.072 10.136C5.992 9.96 5.896 9.828 5.784 9.74C5.672 9.644 5.516 9.572 5.316 9.524C5.124 9.476 4.948 9.448 4.788 9.44C4.636 9.424 4.436 9.416 4.188 9.416H2.052ZM2.052 13.004V16.052H4.308C4.588 16.052 4.816 16.048 4.992 16.04C5.168 16.024 5.364 15.988 5.58 15.932C5.804 15.876 5.98 15.796 6.108 15.692C6.236 15.58 6.344 15.424 6.432 15.224C6.52 15.016 6.564 14.768 6.564 14.48C6.564 14.24 6.532 14.032 6.468 13.856C6.412 13.68 6.312 13.54 6.168 13.436C6.032 13.332 5.9 13.248 5.772 13.184C5.652 13.12 5.476 13.076 5.244 13.052C5.012 13.028 4.832 13.016 4.704 13.016C4.576 13.008 4.38 13.004 4.116 13.004H2.052ZM12.2108 10.664V11.72C12.1388 11.712 12.0508 11.708 11.9468 11.708C11.6188 11.708 11.3348 11.76 11.0948 11.864C10.8548 11.96 10.6628 12.088 10.5188 12.248C10.3828 12.408 10.2708 12.608 10.1828 12.848C10.0948 13.088 10.0348 13.328 10.0028 13.568C9.97884 13.808 9.96684 14.08 9.96684 14.384V17H8.94684V10.808H9.91884V12.14C10.3268 11.156 11.0908 10.664 12.2108 10.664ZM18.4629 16.184V16.976C18.2549 17.056 18.0229 17.096 17.7669 17.096C17.1829 17.096 16.8829 16.792 16.8669 16.184C16.2829 16.84 15.5349 17.168 14.6229 17.168C14.0149 17.168 13.5309 17.012 13.1709 16.7C12.8189 16.388 12.6429 15.96 12.6429 15.416C12.6429 14.312 13.3749 13.668 14.8389 13.484C14.9349 13.468 15.0749 13.452 15.2589 13.436C15.9549 13.356 16.3829 13.264 16.5429 13.16C16.7269 13.032 16.8189 12.812 16.8189 12.5C16.8189 11.82 16.3509 11.48 15.4149 11.48C14.9349 11.48 14.5709 11.58 14.3229 11.78C14.0749 11.972 13.9269 12.292 13.8789 12.74H12.8829C12.8989 12.076 13.1349 11.56 13.5909 11.192C14.0469 10.824 14.6749 10.64 15.4749 10.64C16.3469 10.64 16.9949 10.84 17.4189 11.24C17.5549 11.368 17.6549 11.536 17.7189 11.744C17.7829 11.952 17.8189 12.124 17.8269 12.26C17.8349 12.388 17.8389 12.584 17.8389 12.848C17.8389 13.152 17.8309 13.612 17.8149 14.228C17.7989 14.844 17.7909 15.304 17.7909 15.608C17.7909 15.832 17.8189 15.992 17.8749 16.088C17.9389 16.176 18.0509 16.22 18.2109 16.22C18.2749 16.22 18.3589 16.208 18.4629 16.184ZM16.8189 13.784C16.7469 13.84 16.6709 13.888 16.5909 13.928C16.5109 13.968 16.4069 14 16.2789 14.024C16.1589 14.048 16.0749 14.068 16.0269 14.084C15.9869 14.092 15.8829 14.108 15.7149 14.132C15.5469 14.148 15.4589 14.156 15.4509 14.156C15.2029 14.188 15.0389 14.212 14.9589 14.228C14.8869 14.236 14.7429 14.268 14.5269 14.324C14.3189 14.38 14.1709 14.444 14.0829 14.516C13.9949 14.588 13.9069 14.696 13.8189 14.84C13.7389 14.976 13.6989 15.14 13.6989 15.332C13.6989 15.652 13.8069 15.904 14.0229 16.088C14.2469 16.272 14.5509 16.364 14.9349 16.364C15.4229 16.364 15.8589 16.22 16.2429 15.932C16.6269 15.644 16.8189 15.304 16.8189 14.912V13.784ZM20.3843 10.808V11.768C20.8963 11.016 21.6003 10.64 22.4963 10.64C23.2243 10.64 23.7483 10.832 24.0683 11.216C24.3963 11.592 24.5603 12.148 24.5603 12.884V17H23.5403V13.352C23.5403 13.048 23.5283 12.812 23.5043 12.644C23.4883 12.468 23.4403 12.284 23.3603 12.092C23.2803 11.892 23.1443 11.748 22.9523 11.66C22.7603 11.572 22.5123 11.528 22.2083 11.528C21.0323 11.528 20.4443 12.272 20.4443 13.76V17H19.4243V10.808H20.3843ZM31.6722 8.456V17H30.7122V16.088C30.3202 16.808 29.6402 17.168 28.6722 17.168C27.7922 17.168 27.0922 16.876 26.5722 16.292C26.0602 15.7 25.8042 14.9 25.8042 13.892C25.8042 12.956 26.0442 12.18 26.5242 11.564C27.0122 10.94 27.7122 10.628 28.6242 10.628C29.5122 10.628 30.1882 10.964 30.6522 11.636V8.456H31.6722ZM28.7562 11.504C28.1722 11.504 27.7082 11.716 27.3642 12.14C27.028212.564 26.8602 13.14 26.8602 13.868C26.8602 14.62 27.0322 15.22 27.3762 15.668C27.7282 16.108 28.1962 16.328 28.7802 16.328C29.3722 16.328 29.8362 16.116 30.1722 15.692C30.5082 15.26 30.6762 14.664 30.6762 13.904C30.6762 13.224 30.5162 12.656 30.1962 12.2C29.8842 11.736 29.4042 11.504 28.7562 11.504ZM38.4975 15.044C38.1855 16.484 37.2855 17.204 35.7975 17.204C34.8855 17.204 34.1695 16.92 33.6495 16.352C33.1375 15.784 32.8815 14.996 32.8815 13.988C32.8815 12.988 33.1455 12.18 33.6735 11.564C34.2095 10.94 34.9055 10.628 35.7615 10.628C36.7135 10.628 37.4175 10.952 37.8735 11.6C38.3375 12.24 38.5695 13.052 38.5695 14.036V14.18H33.9135L33.9015 14.252C33.9015 14.908 34.0735 15.424 34.4175 15.8C34.7615 16.176 35.2335 16.364 35.8335 16.364C36.2815 16.364 36.6335 16.26 36.8895 16.052C37.1535 15.844 37.3575 15.508 37.5015 15.044H38.4975ZM37.5135 13.352C37.4655 12.76 37.2855 12.3 36.9735 11.972C36.6615 11.636 36.2495 11.468 35.7375 11.468C35.2415 11.468 34.8295 11.636 34.5015 11.972C34.1735 12.308 33.9775 12.768 33.9135 13.352H37.5135ZM42.8788 10.664V11.72C42.8068 11.712 42.7188 11.708 42.6148 11.708C42.2868 11.708 42.0028 11.76 41.7628 11.864C41.5228 11.96 41.3308 12.088 41.1868 12.248C41.0508 12.408 40.9388 12.608 40.8508 12.848C40.7628 13.088 40.7028 13.328 40.6708 13.568C40.6468 13.808 40.6348 14.08 40.6348 14.384V17H39.6148V10.808H40.5868V12.14C40.9948 11.156 41.7588 10.664 42.8788 10.664Z"
          fill="black"/>
    <g clip-path="url(#clip0_655_4655)">
        <path d="M66.8974 9.94766C64.9177 5.5251 63.6534 5.72188 63.2687 6.37298C61.5525 2.1251 67.6855 3.58987 70.9665 4.8536L74.0628 10.5038C72.5793 12.3466 68.8772 14.3702 66.8974 9.94766Z"
              fill="url(#paint0_linear_655_4655)"/>
        <path d="M56.9625 17H50C52.4913 12.6436 58.1972 3.33202 59.2678 2.25082C64.0521 -2.58143 69.5788 0.978369 72.2205 7.14512C68.7398 3.87389 66.5509 2.85474 63.1602 6.59177L56.9625 17Z"
              fill="url(#paint1_linear_655_4655)"/>
        <path d="M66.1689 16.9842C66.1689 15.7649 67.1698 14.7764 68.4046 14.7764H74.0475C74.0475 15.9957 73.0466 16.9842 71.8119 16.9842H66.1689Z"
              fill="url(#paint2_linear_655_4655)"/>
        <path d="M63.9346 10.03C61.9862 10.03 60.4067 11.5124 60.4067 13.3414V14.114H64.7579C64.8633 14.114 64.9679 14.1098 65.0712 14.1013H71.2693C72.7322 14.1013 75.3521 12.5934 73.815 10.0538H68.2855V10.0298H63.9343L63.9346 10.03Z"
              fill="url(#paint3_linear_655_4655)"/>
        <path d="M91.1067 8.87211C91.1067 8.75628 91.1298 8.64159 91.1747 8.53458C91.2196 8.42757 91.2854 8.33035 91.3683 8.24846C91.4513 8.16656 91.5498 8.10161 91.6581 8.0573C91.7665 8.013 91.8826 7.99021 91.9999 7.99023H92.8413V8.80836C92.8413 8.92419 92.8182 9.03888 92.7733 9.14589C92.7284 9.2529 92.6626 9.35012 92.5797 9.43201C92.4967 9.51391 92.3983 9.57886 92.2899 9.62317C92.1815 9.66747 92.0654 9.69026 91.9481 9.69023H91.1067V8.87211Z"
              fill="url(#paint4_linear_655_4655)"/>
        <path d="M76.0522 10.6026H78.3817C79.0619 10.6026 79.6528 10.6742 80.154 10.8177C80.6554 10.9611 81.07 11.167 81.398 11.4354C81.7225 11.6929 81.9756 12.0274 82.1337 12.4076C82.2964 12.7873 82.3778 13.2151 82.3778 13.6905C82.3778 14.142 82.2977 14.5604 82.1378 14.9455C81.9779 15.328 81.7341 15.6601 81.4062 15.9417C81.0782 16.2205 80.6635 16.4396 80.1622 16.599C79.6608 16.7558 79.0701 16.8342 78.3899 16.8342L76.0522 16.8302V10.6026ZM78.6987 15.7385C79.0836 15.7385 79.421 15.6907 79.7109 15.5951C80.001 15.4967 80.2422 15.3586 80.4346 15.1807C80.63 15.0024 80.7804 14.7813 80.8736 14.5352C80.9711 14.2827 81.0199 14.0011 81.0199 13.6905C81.0199 13.3849 80.9711 13.1101 80.8736 12.8658C80.7807 12.6252 80.63 12.4105 80.4346 12.2402C80.2422 12.0674 80.001 11.9346 79.7109 11.8417C79.421 11.7486 79.0836 11.7023 78.6987 11.7023H77.341V15.7383H78.6987V15.7385ZM83.6704 10.6026H87.0648C87.4795 10.6026 87.8399 10.6464 88.1461 10.7342C88.4551 10.8192 88.7112 10.9373 88.9144 11.0886C89.1177 11.2401 89.2681 11.4208 89.3656 11.6305C89.4659 11.8377 89.516 12.0623 89.516 12.3039C89.516 12.6998 89.3886 13.0464 89.1341 13.3439C89.4267 13.5139 89.6449 13.7342 89.7885 14.0052C89.9322 14.2761 90.0039 14.5842 90.0039 14.9296C90.0039 15.2192 89.9537 15.4808 89.8534 15.7145C89.7556 15.9488 89.6006 16.1554 89.4022 16.3161C89.2016 16.4808 88.9471 16.6083 88.6381 16.6986C88.3318 16.7864 87.9699 16.8302 87.5526 16.8302H83.6704V10.6026ZM87.5608 12.9933C87.6719 12.9933 87.7803 12.9973 87.886 13.0052C88.0676 12.8352 88.1584 12.6411 88.1584 12.4233C88.1584 12.1977 88.0676 12.0238 87.886 11.9014C87.7071 11.7767 87.4442 11.7142 87.0973 11.7142H84.9592V12.9933H87.5608ZM87.5851 15.7305C87.932 15.7305 88.195 15.6574 88.3738 15.5114C88.5554 15.3652 88.6462 15.1595 88.6462 14.8939C88.6462 14.6282 88.5554 14.421 88.3738 14.2723C88.195 14.1235 87.932 14.0492 87.5851 14.0492H84.9592V15.7305H87.5851ZM91.1504 10.6026H92.4471V16.8302H91.1504V10.6026ZM94.3903 14.9774C94.6205 15.1049 94.8536 15.2205 95.0894 15.3242C95.3279 15.4251 95.5745 15.5112 95.8293 15.583C96.0841 15.6521 96.3509 15.7052 96.6302 15.7424C96.9119 15.7796 97.2114 15.7983 97.5284 15.7983C97.9106 15.7983 98.236 15.7742 98.5041 15.7264C98.7724 15.6761 98.9906 15.6083 99.1587 15.5233C99.3293 15.4357 99.4526 15.332 99.5286 15.2126C99.6061 15.0968 99.6471 14.9609 99.6465 14.822C99.6465 14.5961 99.5503 14.4183 99.3577 14.288C99.1654 14.1554 98.8686 14.0889 98.4675 14.0889C98.2915 14.0889 98.1058 14.1008 97.9106 14.1248C97.7154 14.1461 97.5176 14.1699 97.3171 14.1964C97.1193 14.223 96.9229 14.2483 96.7277 14.2721C96.5353 14.2933 96.3537 14.304 96.183 14.304C95.8983 14.304 95.6246 14.2683 95.3619 14.1964C95.1017 14.1248 94.87 14.0173 94.6666 13.8736C94.4679 13.7323 94.3039 13.5485 94.1869 13.336C94.0677 13.1208 94.0081 12.8698 94.0081 12.5829C94.0081 12.4129 94.0311 12.2442 94.0772 12.0767C94.1273 11.9066 94.2041 11.7453 94.3049 11.5986C94.4177 11.437 94.5548 11.2933 94.7114 11.1723C94.8766 11.0395 95.0759 10.9252 95.3089 10.8296C95.5448 10.734 95.8157 10.6596 96.1219 10.6065C96.4309 10.5508 96.7819 10.5229 97.1749 10.5229C97.4593 10.5229 97.7453 10.5389 98.0326 10.5708C98.3138 10.5991 98.5933 10.6416 98.8701 10.6983C99.1364 10.7521 99.3996 10.82 99.6586 10.9014C99.9108 10.9785 100.145 11.0648 100.362 11.1604L99.7969 12.1804C99.6084 12.0999 99.4157 12.0294 99.2196 11.9692C99.0073 11.9011 98.7915 11.844 98.5732 11.7979C98.3422 11.7492 98.1088 11.7119 97.874 11.6864C97.6313 11.6569 97.3869 11.6423 97.1424 11.6426C96.7873 11.6426 96.4946 11.6677 96.2642 11.7183C96.0365 11.7686 95.8551 11.8339 95.7195 11.9135C95.584 11.9905 95.4893 12.078 95.435 12.1764C95.3834 12.272 95.3578 12.3677 95.3578 12.4633C95.3578 12.6492 95.443 12.802 95.6139 12.9214C95.7845 13.0383 96.0447 13.0967 96.3944 13.0967C96.5353 13.0967 96.6965 13.0874 96.8781 13.0689C97.0623 13.0477 97.2547 13.0251 97.4552 13.0011C97.6586 12.9773 97.8645 12.9561 98.0733 12.9374C98.2846 12.9161 98.4892 12.9055 98.687 12.9055C99.061 12.9055 99.3917 12.9467 99.679 13.029C99.9689 13.1114 100.212 13.2296 100.407 13.3838C100.598 13.5301 100.75 13.7202 100.8513.9376C100.95 14.1527 101 14.3945 101 14.6627C101 15.0214 100.915 15.3414 100.744 15.6229C100.576 15.9017 100.335 16.1383 100.021 16.3321C99.7087 16.5233 99.3321 16.6695 98.8903 16.7704C98.4486 16.8686 97.9566 16.9179 97.4148 16.9179C97.0569 16.9179 96.7075 16.8952 96.366 16.8499C96.0344 16.8093 95.7058 16.7481 95.3821 16.6667C95.0785 16.5871 94.7799 16.49 94.4878 16.376C94.2184 16.2678 93.9564 16.1427 93.7032 16.0014L94.3903 14.9774Z"
              fill="#211F54"/>
    </g>
    <defs>
        <linearGradient id="paint0_linear_655_4655" x1="68.5172" y1="3.5463" x2="68.5172" y2="12.606"
                        gradientUnits="userSpaceOnUse">
            <stop stop-color="#003399"/>
            <stop offset="1" stop-color="#4084FF"/>
        </linearGradient>
        <linearGradient id="paint1_linear_655_4655" x1="61.1103" y1="1.9853e-05" x2="61.1103" y2="17"
                        gradientUnits="userSpaceOnUse">
            <stop stop-color="#003399"/>
            <stop offset="1" stop-color="#4084FF"/>
        </linearGradient>
        <linearGradient id="paint2_linear_655_4655" x1="70.1082" y1="14.7766" x2="70.1082" y2="16.9842"
                        gradientUnits="userSpaceOnUse">
            <stop stop-color="#003399"/>
            <stop offset="1" stop-color="#4084FF"/>
        </linearGradient>
        <linearGradient id="paint3_linear_655_4655" x1="67.3447" y1="10.0298" x2="67.3447" y2="14.114"
                        gradientUnits="userSpaceOnUse">
            <stop stop-color="#003399"/>
            <stop offset="1" stop-color="#4084FF"/>
        </linearGradient>
        <linearGradient id="paint4_linear_655_4655" x1="91.9739" y1="7.99023" x2="91.9739" y2="9.69023"
                        gradientUnits="userSpaceOnUse">
            <stop stop-color="#003399"/>
            <stop offset="1" stop-color="#4084FF"/>
        </linearGradient>
        <clipPath id="clip0_655_4655">
            <rect width="51" height="17" fill="white" transform="translate(50)"/>
        </clipPath>
    </defs>
</svg>