<svg width="40" height="40" viewBox="0 0 40 40" fill="none" xmlns="http://www.w3.org/2000/svg">
<g clip-path="url(#clip0_709_1197)">
<path d="M36.962 13.4465C37.0867 12.7784 37.1498 12.1002 37.1506 11.4206C37.143 5.10824 32.0197 -0.0027265 25.7074 0.00489132C20.9021 0.0106675 16.6137 3.02138 14.976 7.53892C12.0436 6.37163 8.72016 7.80244 7.5528 10.7348C7.45176 10.9886 7.36906 11.2493 7.30534 11.5149C2.62314 12.2152 -0.604801 16.5785 0.095452 21.2607C0.723462 25.46 4.33096 28.5667 8.57685 28.5649H15.7203C16.5093 28.5649 17.149 27.9253 17.149 27.1362C17.149 26.3471 16.5093 25.7075 15.7203 25.7075H8.57685C5.42064 25.7075 2.86206 23.1489 2.86206 19.9927C2.86206 16.8365 5.42064 14.2779 8.57685 14.2779C9.36592 14.2779 10.0056 13.6383 10.0056 12.8492C10.0082 11.2711 11.2895 9.99395 12.8676 9.99654C13.6139 9.99778 14.3301 10.2909 14.8631 10.8133C15.425 11.3672 16.3296 11.3606 16.8835 10.7986C17.0914 10.5876 17.2286 10.3171 17.2761 10.0247C18.0516 5.35913 22.4624 2.20569 27.1279 2.9812C31.7935 3.75671 34.9469 8.16751 34.1714 12.833C34.1251 13.1112 34.0652 13.3869 33.9917 13.6592C33.9117 13.9499 33.9256 14.2585 34.0316 14.5408C34.1376 14.8231 34.3302 15.0646 34.5818 15.2307C37.2117 16.9757 37.9291 20.5224 36.184 23.1523C35.664 23.936 34.9585 24.5793 34.1302 25.025C33.3019 25.4707 32.3764 25.7051 31.4358 25.7073H27.1498C26.3607 25.7073 25.721 26.347 25.721 27.1361C25.721 27.9251 26.3607 28.5648 27.1498 28.5648H31.4358C36.1701 28.5603 40.0044 24.7188 39.9999 19.9845C39.9987 18.7395 39.7263 17.5097 39.2017 16.3806C38.6771 15.2515 37.9128 14.2503 36.962 13.4465Z" fill="black"/>
<path d="M29.5558 30.412C29.0021 29.8774 28.1244 29.8774 27.5708 30.412L22.8632 35.1168V14.2778C22.8632 13.4888 22.2236 12.8491 21.4345 12.8491C20.6455 12.8491 20.0058 13.4888 20.0058 14.2778V35.1167L15.3011 30.412C14.7335 29.8638 13.8291 29.8796 13.2809 30.447C12.7462 31.0007 12.7462 31.8784 13.2809 32.4321L20.4244 39.5755C20.9816 40.1341 21.8862 40.1353 22.4448 39.578L22.4474 39.5755L29.5909 32.4321C30.1391 31.8646 30.1234 30.9602 29.5558 30.412Z" fill="black"/>
</g>
<defs>
<clipPath id="clip0_709_1197">
<rect width="40" height="40" fill="white"/>
</clipPath>
</defs>
</svg>
