<svg width="20" height="20" viewBox="0 0 20 20" fill="none" xmlns="http://www.w3.org/2000/svg">
<path fill-rule="evenodd" clip-rule="evenodd" d="M18.125 4.16669V15.8334C18.125 16.6622 17.7958 17.457 17.2097 18.0431C16.6237 18.6291 15.8288 18.9584 15 18.9584H5C4.1712 18.9584 3.37634 18.6291 2.79029 18.0431C2.20424 17.457 1.875 16.6622 1.875 15.8334V4.16669C1.875 3.33789 2.20424 2.54303 2.79029 1.95698C3.37634 1.37093 4.1712 1.04169 5 1.04169H15C15.8288 1.04169 16.6237 1.37093 17.2097 1.95698C17.7958 2.54303 18.125 3.33789 18.125 4.16669ZM16.875 4.16669C16.875 3.66941 16.6775 3.19249 16.3258 2.84086C15.9742 2.48923 15.4973 2.29169 15 2.29169H5C4.50272 2.29169 4.02581 2.48923 3.67417 2.84086C3.32254 3.19249 3.125 3.66941 3.125 4.16669V15.8334C3.125 16.3306 3.32254 16.8075 3.67417 17.1592C4.02581 17.5108 4.50272 17.7084 5 17.7084H15C15.4973 17.7084 15.9742 17.5108 16.3258 17.1592C16.6775 16.8075 16.875 16.3306 16.875 15.8334V4.16669Z" fill="#D9D9D9"/>
<path fill-rule="evenodd" clip-rule="evenodd" d="M10.0007 4.37494C10.1664 4.37494 10.3254 4.44079 10.4426 4.558C10.5598 4.67521 10.6257 4.83418 10.6257 4.99994C10.6257 5.1657 10.5598 5.32467 10.4426 5.44188C10.3254 5.55909 10.1664 5.62494 10.0007 5.62494H5.83398C5.66822 5.62494 5.50925 5.55909 5.39204 5.44188C5.27483 5.32467 5.20898 5.1657 5.20898 4.99994C5.20898 4.83418 5.27483 4.67521 5.39204 4.558C5.50925 4.44079 5.66822 4.37494 5.83398 4.37494H10.0007ZM14.1673 7.70827C14.3331 7.70827 14.4921 7.77412 14.6093 7.89133C14.7265 8.00854 14.7923 8.16751 14.7923 8.33327C14.7923 8.49903 14.7265 8.658 14.6093 8.77521C14.4921 8.89242 14.3331 8.95827 14.1673 8.95827H5.83398C5.66822 8.95827 5.50925 8.89242 5.39204 8.77521C5.27483 8.658 5.20898 8.49903 5.20898 8.33327C5.20898 8.16751 5.27483 8.00854 5.39204 7.89133C5.50925 7.77412 5.66822 7.70827 5.83398 7.70827H14.1673ZM14.1673 11.0416C14.3331 11.0416 14.4921 11.1075 14.6093 11.2247C14.7265 11.3419 14.7923 11.5008 14.7923 11.6666C14.7923 11.8324 14.7265 11.9913 14.6093 12.1085C14.4921 12.2258 14.3331 12.2916 14.1673 12.2916H5.83398C5.66822 12.2916 5.50925 12.2258 5.39204 12.1085C5.27483 11.9913 5.20898 11.8324 5.20898 11.6666C5.20898 11.5008 5.27483 11.3419 5.39204 11.2247C5.50925 11.1075 5.66822 11.0416 5.83398 11.0416H14.1673ZM14.1673 14.3749C14.3331 14.3749 14.4921 14.4408 14.6093 14.558C14.7265 14.6752 14.7923 14.8342 14.7923 14.9999C14.7923 15.1657 14.7265 15.3247 14.6093 15.4419C14.4921 15.5591 14.3331 15.6249 14.1673 15.6249H5.83398C5.66822 15.6249 5.50925 15.5591 5.39204 15.4419C5.27483 15.3247 5.20898 15.1657 5.20898 14.9999C5.20898 14.8342 5.27483 14.6752 5.39204 14.558C5.50925 14.4408 5.66822 14.3749 5.83398 14.3749H14.1673Z" fill="#D9D9D9"/>
</svg>
