<svg width="40" height="40" viewBox="0 0 40 40" fill="none" xmlns="http://www.w3.org/2000/svg">
<g clip-path="url(#clip0_502_5437)">
<path d="M39.6496 11.6335L28.8163 0.383606C28.6438 0.203972 28.4214 0.0800561 28.1779 0.0277925C27.9344 -0.0244711 27.6808 -0.00269242 27.4498 0.0903279C27.2185 0.18366 27.0204 0.343938 26.8808 0.550611C26.7412 0.757283 26.6666 1.00093 26.6664 1.25032V6.66714H26.2498C17.2899 6.66714 10 13.9571 10 22.917V25.417C10 25.9968 10.4083 26.4802 10.9732 26.6117C11.0648 26.6333 11.1566 26.6453 11.2482 26.6453C11.7215 26.6453 12.1732 26.3685 12.3898 25.9352C14.7332 21.2468 19.4448 18.3336 24.6864 18.3336H26.6664V23.7501C26.6666 23.9995 26.7412 24.2431 26.8808 24.4498C27.0204 24.6565 27.2185 24.8168 27.4498 24.9101C27.9179 25.0987 28.4629 24.9851 28.8163 24.6168L39.6496 13.3669C40.1163 12.8835 40.1163 12.1169 39.6496 11.6335Z" fill="#2196F3"/>
<path d="M34.9997 39.9999H4.99995C2.24334 39.9999 0 37.7566 0 35V11.6671C0 8.91045 2.24334 6.66711 4.99995 6.66711H9.9999C10.9215 6.66711 11.6664 7.41359 11.6664 8.33366C11.6664 9.25373 10.9215 10.0002 9.9999 10.0002H4.99995C4.07988 10.0002 3.33309 10.7485 3.33309 11.6671V35C3.33309 35.9182 4.07988 36.6668 4.99995 36.6668H34.9997C35.9194 36.6668 36.6662 35.9182 36.6662 35V21.667C36.6662 20.7469 37.4111 20.0001 38.3328 20.0001C39.2544 20.0001 39.9996 20.7469 39.9996 21.667V35C39.9996 37.7566 37.7563 39.9999 34.9997 39.9999Z" fill="#607D8B"/>
</g>
<defs>
<clipPath id="clip0_502_5437">
<rect width="40" height="40" fill="white"/>
</clipPath>
</defs>
</svg>
