<svg width="24" height="24" viewBox="0 0 24 24" fill="none" xmlns="http://www.w3.org/2000/svg">
<path d="M22.5152 6.01807C21.1455 6.01807 19.8818 5.56432 18.8669 4.79885C17.703 3.92135 16.8668 2.63416 16.5715 1.15057C16.4974 0.77753 16.4585 0.39837 16.4552 0.0180664H12.5426V10.7093L12.5379 16.5654C12.5379 18.131 11.5183 19.4585 10.1051 19.9254C9.68172 20.0654 9.23586 20.1245 8.79067 20.0998C8.20192 20.0674 7.65021 19.8898 7.17067 19.6029C6.15021 18.9926 5.45833 17.8854 5.43958 16.6188C5.41005 14.6393 7.01036 13.0254 8.98849 13.0254C9.37896 13.0254 9.75396 13.0892 10.1051 13.2049V9.23229C9.73474 9.17744 9.35786 9.14885 8.97677 9.14885C6.81161 9.14885 4.78661 10.0488 3.33911 11.6703C2.24505 12.8956 1.5888 14.4588 1.48755 16.0981C1.35489 18.2515 2.14286 20.2985 3.67099 21.8088C3.89552 22.0306 4.1313 22.2363 4.37786 22.4262C5.68802 23.4345 7.28974 23.981 8.97677 23.981C9.35786 23.981 9.73474 23.9529 10.1051 23.8981C11.681 23.6646 13.1351 22.9432 14.2826 21.8088C15.6926 20.4153 16.4716 18.5651 16.4801 16.5959L16.4599 7.85088C17.1341 8.37094 17.8727 8.80169 18.6574 9.13244C19.885 9.65041 21.1868 9.91291 22.5265 9.91244V6.01713C22.5274 6.01807 22.5161 6.01807 22.5152 6.01807Z" fill="#252528"/>
</svg>
