<svg width="119" height="18" viewBox="0 0 119 18" fill="none" xmlns="http://www.w3.org/2000/svg">
<path d="M0.948 8.456H4.596C5.38 8.456 6.028 8.628 6.54 8.972C7.06 9.316 7.32 9.856 7.32 10.592C7.32 11.016 7.204 11.396 6.972 11.732C6.748 12.06 6.444 12.292 6.06 12.428C6.588 12.548 6.992 12.796 7.272 13.172C7.56 13.548 7.704 14.02 7.704 14.588C7.704 16.196 6.624 17 4.464 17H0.948V8.456ZM2.052 9.416V12.116H4.08C4.312 12.116 4.508 12.112 4.668 12.104C4.836 12.088 5.024 12.056 5.232 12.008C5.44 11.96 5.604 11.892 5.724 11.804C5.852 11.708 5.96 11.572 6.048 11.396C6.144 11.22 6.192 11.008 6.192 10.76C6.192 10.512 6.152 10.304 6.072 10.136C5.992 9.96 5.896 9.828 5.784 9.74C5.672 9.644 5.516 9.572 5.316 9.524C5.124 9.476 4.948 9.448 4.788 9.44C4.636 9.424 4.436 9.416 4.188 9.416H2.052ZM2.052 13.004V16.052H4.308C4.588 16.052 4.816 16.048 4.992 16.04C5.168 16.024 5.364 15.988 5.58 15.932C5.804 15.876 5.98 15.796 6.108 15.692C6.236 15.58 6.344 15.424 6.432 15.224C6.52 15.016 6.564 14.768 6.564 14.48C6.564 14.24 6.532 14.032 6.468 13.856C6.412 13.68 6.312 13.54 6.168 13.436C6.032 13.332 5.9 13.248 5.772 13.184C5.652 13.12 5.476 13.076 5.244 13.052C5.012 13.028 4.832 13.016 4.704 13.016C4.576 13.008 4.38 13.004 4.116 13.004H2.052ZM12.2108 10.664V11.72C12.1388 11.712 12.0508 11.708 11.9468 11.708C11.6188 11.708 11.3348 11.76 11.0948 11.864C10.8548 11.96 10.6628 12.088 10.5188 12.248C10.3828 12.408 10.2708 12.608 10.1828 12.848C10.0948 13.088 10.0348 13.328 10.0028 13.568C9.97884 13.808 9.96684 14.08 9.96684 14.384V17H8.94684V10.808H9.91884V12.14C10.3268 11.156 11.0908 10.664 12.2108 10.664ZM18.4629 16.184V16.976C18.2549 17.056 18.0229 17.096 17.7669 17.096C17.1829 17.096 16.8829 16.792 16.8669 16.184C16.2829 16.84 15.5349 17.168 14.6229 17.168C14.0149 17.168 13.5309 17.012 13.1709 16.7C12.8189 16.388 12.6429 15.96 12.6429 15.416C12.6429 14.312 13.3749 13.668 14.8389 13.484C14.9349 13.468 15.0749 13.452 15.2589 13.436C15.9549 13.356 16.3829 13.264 16.5429 13.16C16.7269 13.032 16.8189 12.812 16.8189 12.5C16.8189 11.82 16.3509 11.48 15.4149 11.48C14.9349 11.48 14.5709 11.58 14.3229 11.78C14.0749 11.972 13.9269 12.292 13.8789 12.74H12.8829C12.8989 12.076 13.1349 11.56 13.5909 11.192C14.0469 10.824 14.6749 10.64 15.4749 10.64C16.3469 10.64 16.9949 10.84 17.4189 11.24C17.5549 11.368 17.6549 11.536 17.7189 11.744C17.7829 11.952 17.8189 12.124 17.8269 12.26C17.8349 12.388 17.8389 12.584 17.8389 12.848C17.8389 13.152 17.8309 13.612 17.8149 14.228C17.7989 14.844 17.7909 15.304 17.7909 15.608C17.7909 15.832 17.8189 15.992 17.8749 16.088C17.9389 16.176 18.0509 16.22 18.2109 16.22C18.2749 16.22 18.3589 16.208 18.4629 16.184ZM16.8189 13.784C16.7469 13.84 16.6709 13.888 16.5909 13.928C16.5109 13.968 16.4069 14 16.2789 14.024C16.1589 14.048 16.0749 14.068 16.0269 14.084C15.9869 14.092 15.8829 14.108 15.7149 14.132C15.5469 14.148 15.4589 14.156 15.4509 14.156C15.2029 14.188 15.0389 14.212 14.9589 14.228C14.8869 14.236 14.7429 14.268 14.5269 14.324C14.3189 14.38 14.1709 14.444 14.0829 14.516C13.9949 14.588 13.9069 14.696 13.8189 14.84C13.7389 14.976 13.6989 15.14 13.6989 15.332C13.6989 15.652 13.8069 15.904 14.0229 16.088C14.2469 16.272 14.5509 16.364 14.9349 16.364C15.4229 16.364 15.8589 16.22 16.2429 15.932C16.6269 15.644 16.8189 15.304 16.8189 14.912V13.784ZM20.3843 10.808V11.768C20.8963 11.016 21.6003 10.64 22.4963 10.64C23.2243 10.64 23.7483 10.832 24.0683 11.216C24.3963 11.592 24.5603 12.148 24.5603 12.884V17H23.5403V13.352C23.5403 13.048 23.5283 12.812 23.5043 12.644C23.4883 12.468 23.4403 12.284 23.3603 12.092C23.2803 11.892 23.1443 11.748 22.9523 11.66C22.7603 11.572 22.5123 11.528 22.2083 11.528C21.0323 11.528 20.4443 12.272 20.4443 13.76V17H19.4243V10.808H20.3843ZM31.6722 8.456V17H30.7122V16.088C30.3202 16.808 29.6402 17.168 28.6722 17.168C27.7922 17.168 27.0922 16.876 26.5722 16.292C26.0602 15.7 25.8042 14.9 25.8042 13.892C25.8042 12.956 26.0442 12.18 26.5242 11.564C27.0122 10.94 27.7122 10.628 28.6242 10.628C29.5122 10.628 30.1882 10.964 30.6522 11.636V8.456H31.6722ZM28.7562 11.504C28.1722 11.504 27.7082 11.716 27.3642 12.14C27.0282 12.564 26.8602 13.14 26.8602 13.868C26.8602 14.62 27.0322 15.22 27.3762 15.668C27.7282 16.108 28.1962 16.328 28.7802 16.328C29.3722 16.328 29.8362 16.116 30.1722 15.692C30.5082 15.26 30.6762 14.664 30.6762 13.904C30.6762 13.224 30.5162 12.656 30.1962 12.2C29.8842 11.736 29.4042 11.504 28.7562 11.504ZM38.4975 15.044C38.1855 16.484 37.2855 17.204 35.7975 17.204C34.8855 17.204 34.1695 16.92 33.6495 16.352C33.1375 15.784 32.8815 14.996 32.8815 13.988C32.8815 12.988 33.1455 12.18 33.6735 11.564C34.2095 10.94 34.9055 10.628 35.7615 10.628C36.7135 10.628 37.4175 10.952 37.8735 11.6C38.3375 12.24 38.5695 13.052 38.5695 14.036V14.18H33.9135L33.9015 14.252C33.9015 14.908 34.0735 15.424 34.4175 15.8C34.7615 16.176 35.2335 16.364 35.8335 16.364C36.2815 16.364 36.6335 16.26 36.8895 16.052C37.1535 15.844 37.3575 15.508 37.5015 15.044H38.4975ZM37.5135 13.352C37.4655 12.76 37.2855 12.3 36.9735 11.972C36.6615 11.636 36.2495 11.468 35.7375 11.468C35.2415 11.468 34.8295 11.636 34.5015 11.972C34.1735 12.308 33.9775 12.768 33.9135 13.352H37.5135ZM42.8788 10.664V11.72C42.8068 11.712 42.7188 11.708 42.6148 11.708C42.2868 11.708 42.0028 11.76 41.7628 11.864C41.5228 11.96 41.3308 12.088 41.1868 12.248C41.0508 12.408 40.9388 12.608 40.8508 12.848C40.7628 13.088 40.7028 13.328 40.6708 13.568C40.6468 13.808 40.6348 14.08 40.6348 14.384V17H39.6148V10.808H40.5868V12.14C40.9948 11.156 41.7588 10.664 42.8788 10.664Z" fill="black"/>
<g clip-path="url(#clip0_655_4681)">
<path d="M67.2631 9.89888C65.2405 5.49792 63.9487 5.6937 63.5556 6.34172C61.8023 2.11445 68.0681 3.57214 71.4201 4.82939L74.5837 10.4521C73.0679 12.2859 69.2856 14.2999 67.2631 9.89888Z" fill="url(#paint0_linear_655_4681)"/>
<path d="M57.1133 16.9172H50C52.5452 12.582 58.3748 3.31597 59.4685 2.23991C64.3565 -2.5689 70.003 0.973619 72.7017 7.11034C69.1456 3.85513 66.9094 2.84102 63.4452 6.55973L57.1133 16.9172Z" fill="url(#paint1_linear_655_4681)"/>
<path d="M66.3691 16.9016C66.3691 15.6882 67.3797 14.7046 68.6263 14.7046H74.3455C74.3455 15.918 73.3349 16.9016 72.0883 16.9016H66.3691Z" fill="url(#paint2_linear_655_4681)"/>
<path d="M64.353 9.98096C62.3805 9.98096 60.7815 11.4564 60.7815 13.2764V14.0453H65.1863C65.2933 14.0453 65.3992 14.0409 65.5038 14.0325H71.7785C73.2594 14.0325 75.9118 12.532 74.3558 10.0047H68.7578V9.98096H64.353Z" fill="url(#paint3_linear_655_4681)"/>
<path d="M83.5923 9.02246H85.3303L89.2409 16.892H87.5184L86.8718 15.5678H82.149L81.5231 16.892H79.7954L83.5923 9.02246ZM86.2252 14.2537L84.4768 10.6789L82.7749 14.2537H86.2252Z" fill="#211F54"/>
<path d="M89.8357 13.9465C89.8357 13.4733 89.927 13.0469 90.1098 12.6676C90.2926 12.285 90.5443 11.9594 90.8651 11.6908C91.1892 11.419 91.572 11.2109 92.0134 11.0665C92.4583 10.9189 92.9393 10.845 93.4566 10.845C93.6773 10.845 93.8946 10.8584 94.1084 10.8853C94.3257 10.9121 94.5326 10.9491 94.7292 10.9961C94.9291 11.043 95.1153 11.1001 95.2878 11.1673C95.4636 11.231 95.6188 11.3015 95.7534 11.3787V8.53906H97.2845V16.8919H95.7534V16.333C95.6188 16.4237 95.4602 16.5093 95.2774 16.5899C95.0947 16.6704 94.8981 16.7409 94.6878 16.8013C94.4774 16.8617 94.2584 16.9087 94.0308 16.9422C93.8066 16.9792 93.5842 16.9976 93.3635 16.9976C92.8462 16.9976 92.3704 16.9238 91.9358 16.7762C91.5048 16.6284 91.134 16.4203 90.8237 16.1518C90.5133 15.8833 90.2702 15.5627 90.0943 15.1901C89.9219 14.8142 89.8357 14.3997 89.8357 13.9465ZM91.4444 13.9465C91.4444 14.1848 91.4927 14.4097 91.5892 14.6212C91.6893 14.8326 91.8307 15.0189 92.0134 15.18C92.1997 15.3378 92.422 15.4637 92.6807 15.5577C92.9428 15.6483 93.2359 15.6936 93.5601 15.6936C93.767 15.6936 93.9739 15.6751 94.1808 15.6382C94.3878 15.598 94.5861 15.5426 94.7757 15.4721C94.9688 15.4016 95.1481 15.316 95.3136 15.2153C95.4826 15.1146 95.6292 15.0021 95.7534 14.878V12.8187C95.5982 12.6978 95.4343 12.5955 95.262 12.5115C95.0895 12.4277 94.9137 12.3588 94.7343 12.3052C94.555 12.2514 94.374 12.2128 94.1912 12.1893C94.0084 12.1625 93.8308 12.1491 93.6584 12.1491C93.3066 12.1491 92.9928 12.196 92.7169 12.29C92.4445 12.3806 92.2135 12.5065 92.0238 12.6676C91.8376 12.8287 91.6945 13.0184 91.5944 13.2366C91.4944 13.4548 91.4444 13.6914 91.4444 13.9465Z" fill="#211F54"/>
<path d="M99.3535 9.02246H103.673C104.2 9.02246 104.659 9.0778 105.049 9.18861C105.442 9.296 105.768 9.44536 106.026 9.6367C106.285 9.82804 106.476 10.0562 106.601 10.3215C106.728 10.5832 106.792 10.8669 106.792 11.1724C106.792 11.6725 106.63 12.1105 106.306 12.4865C106.678 12.7012 106.956 12.9799 107.139 13.3222C107.321 13.6646 107.413 14.054 107.413 14.4903C107.413 14.8562 107.349 15.1868 107.221 15.4822C107.097 15.7776 106.906 16.031 106.647 16.2425C106.392 16.4506 106.068 16.6117 105.675 16.7258C105.285 16.8366 104.825 16.892 104.294 16.892H99.3535V9.02246ZM104.304 12.0434C104.445 12.0434 104.583 12.0484 104.718 12.0585C104.949 11.8436 105.064 11.5986 105.064 11.3234C105.064 11.038 104.949 10.8182 104.718 10.6638C104.49 10.5061 104.156 10.4272 103.714 10.4272H100.993V12.0434H104.304ZM104.335 15.5023C104.776 15.5023 105.111 15.4101 105.338 15.2254C105.57 15.0408 105.685 14.7807 105.685 14.445C105.685 14.1094 105.57 13.8475 105.338 13.6595C105.111 13.4716 104.776 13.3776 104.335 13.3776H100.993V15.5023H104.335Z" fill="#211F54"/>
<path d="M108.928 10.9512H110.46V16.8924H108.928V10.9512Z" fill="#211F54"/>
<path d="M112.669 15.0695C113.082 15.3111 113.538 15.489 114.034 15.6032C114.531 15.7173 115.039 15.7744 115.56 15.7744C115.912 15.7744 116.205 15.7509 116.439 15.7039C116.674 15.6568 116.862 15.5965 117.003 15.5226C117.145 15.4488 117.245 15.3648 117.303 15.2709C117.362 15.1769 117.391 15.0812 117.391 14.9838C117.391 14.8429 117.327 14.7221 117.2 14.6214C117.076 14.5206 116.869 14.4703 116.579 14.4703C116.445 14.4703 116.3 14.4787 116.145 14.4955C115.989 14.5122 115.826 14.5307 115.653 14.5509C115.484 14.5677 115.307 14.5844 115.12 14.6012C114.938 14.618 114.751 14.6264 114.562 14.6264C114.148 14.6264 113.794 14.5828 113.501 14.4955C113.212 14.4082 112.975 14.2891 112.793 14.138C112.61 13.9869 112.477 13.8091 112.394 13.6043C112.312 13.3962 112.27 13.173 112.27 12.9347C112.27 12.6326 112.343 12.3539 112.487 12.0989C112.632 11.8437 112.839 11.6239 113.108 11.4393C113.377 11.2513 113.701 11.1053 114.081 11.0013C114.463 10.8972 114.889 10.8452 115.358 10.8452C115.603 10.8452 115.858 10.8603 116.124 10.8905C116.393 10.9173 116.657 10.9543 116.915 11.0013C117.174 11.0482 117.422 11.1036 117.66 11.1674C117.898 11.2278 118.109 11.2933 118.291 11.3638L117.81 12.5218C117.421 12.3808 117.031 12.2701 116.641 12.1895C116.255 12.1056 115.857 12.0636 115.446 12.0636C115.16 12.0636 114.917 12.0854 114.717 12.1291C114.52 12.1693 114.36 12.2247 114.236 12.2953C114.112 12.3623 114.02 12.4413 113.962 12.5319C113.907 12.6192 113.879 12.7114 113.879 12.8088C113.879 12.8793 113.893 12.9431 113.92 13.0001C113.951 13.0572 114 13.1075 114.065 13.1512C114.134 13.1914 114.222 13.2233 114.329 13.2468C114.439 13.267 114.574 13.2771 114.732 13.2771C114.877 13.2771 115.031 13.2687 115.193 13.2519C115.355 13.2351 115.524 13.2183 115.7 13.2015C115.876 13.1814 116.057 13.1629 116.243 13.1462C116.433 13.1294 116.626 13.121 116.822 13.121C117.188 13.121 117.507 13.1629 117.779 13.2468C118.055 13.3307 118.283 13.4482 118.462 13.5993C118.641 13.7503 118.776 13.9282 118.866 14.133C118.955 14.3377 119 14.5609 119 14.8026C119 15.1148 118.926 15.4051 118.778 15.6736C118.629 15.9422 118.409 16.1754 118.115 16.3735C117.822 16.5682 117.457 16.7209 117.019 16.8317C116.584 16.9424 116.081 16.9978 115.508 16.9978C115.157 16.9978 114.817 16.976 114.489 16.9324C114.162 16.8921 113.85 16.8367 113.553 16.7663C113.256 16.6924 112.977 16.6068 112.715 16.5094C112.456 16.4121 112.22 16.308 112.006 16.1973L112.669 15.0695Z" fill="#211F54"/>
<path d="M108.928 9.07796C108.928 8.78035 109.176 8.53906 109.482 8.53906H110.584V9.61125C110.584 9.90893 110.336 10.1502 110.03 10.1502H108.928V9.07796Z" fill="#211F54"/>
</g>
<defs>
<linearGradient id="paint0_linear_655_4681" x1="71.0406" y1="9.65592" x2="66.5777" y2="5.18581" gradientUnits="userSpaceOnUse">
<stop stop-color="#9B8CEB"/>
<stop offset="1" stop-color="#4A32CE"/>
</linearGradient>
<linearGradient id="paint1_linear_655_4681" x1="53.354" y1="16.5022" x2="68.8545" y2="2.16983" gradientUnits="userSpaceOnUse">
<stop stop-color="#4A32CE"/>
<stop offset="1" stop-color="#A293F5"/>
</linearGradient>
<linearGradient id="paint2_linear_655_4681" x1="71.2204" y1="13.1393" x2="72.8989" y2="17.925" gradientUnits="userSpaceOnUse">
<stop stop-color="#7361D0"/>
<stop offset="1" stop-color="#AA9CF9"/>
</linearGradient>
<linearGradient id="paint3_linear_655_4681" x1="65.6327" y1="7.08508" x2="70.1728" y2="14.082" gradientUnits="userSpaceOnUse">
<stop stop-color="#7361D0"/>
<stop offset="1" stop-color="#AA9CF9"/>
</linearGradient>
<clipPath id="clip0_655_4681">
<rect width="69" height="17" fill="white" transform="translate(50)"/>
</clipPath>
</defs>
</svg>
