<svg xmlns="http://www.w3.org/2000/svg" viewBox="0 0 506.93 123.42">
    <defs>
        <style>.cls-1{fill:#FFEA2E;}.cls-2{fill:#1d1d1b;}</style>
    </defs>
    <g id="Layer_2" data-name="Layer 2">
        <g id="Layer_1-2" data-name="Layer 1">
            <path class="cls-1"
                  d="M212.82,49.47q-.37.14-1.17.51a10.37,10.37,0,0,1-4.36.94,6.3,6.3,0,0,1-2.56-.52,4.22,4.22,0,0,1-1.89-1.57,4.64,4.64,0,0,1-.71-2.62V28.66h-3.37V26.12h3.37V17.87h3.19v8.25H211v2.54h-5.63V45.33a2.56,2.56,0,0,0,1,2,3.2,3.2,0,0,0,2,.66,6.13,6.13,0,0,0,2.39-.45,6.75,6.75,0,0,0,1.32-.63Z"/>
            <path class="cls-1"
                  d="M216.57,40.41V26.12h3.19V39.85c0,2.77.47,4.84,1.43,6.21a4.81,4.81,0,0,0,4.24,2,8.43,8.43,0,0,0,3.63-.82A9.6,9.6,0,0,0,232.18,45a10.25,10.25,0,0,0,2.06-3.52V26.12h3.19v20.5a1.35,1.35,0,0,0,.28,1,1.26,1.26,0,0,0,.85.35v2.53l-.9.07-.6,0a2.66,2.66,0,0,1-1.62-.75,2.26,2.26,0,0,1-.73-1.59l-.09-3.27a11.77,11.77,0,0,1-10.27,6,6.75,6.75,0,0,1-5.81-2.66Q216.58,45.61,216.57,40.41Z"/>
            <path class="cls-1"
                  d="M256.84,28.84a10.15,10.15,0,0,0-5.6,1.78,8.94,8.94,0,0,0-3.4,4.65V50.45h-3.19V26.12h3v5.77A11.48,11.48,0,0,1,251,27.72a8.29,8.29,0,0,1,4.43-1.78c.31,0,.59-.05.82-.05a3.17,3.17,0,0,1,.59.05Z"/>
            <path class="cls-1"
                  d="M262.51,58c.44,0,.86.06,1.27.07a2.45,2.45,0,0,0,.89-.07,1.9,1.9,0,0,0,1.07-.65A8.33,8.33,0,0,0,267,55.15c.47-1.06,1.13-2.61,2-4.67L258.29,26.12h3.38l8.95,21.09,8.25-21.09h3.19L269.4,57.54a5.63,5.63,0,0,1-1,1.66,4.81,4.81,0,0,1-1.62,1.22,6.22,6.22,0,0,1-2.37.49,5,5,0,0,1-.87,0,10.25,10.25,0,0,1-1.05-.12Z"/>
            <path class="cls-1"
                  d="M293.92,50.92a15.66,15.66,0,0,1-5.58-1,11.77,11.77,0,0,1-4.45-3l1.31-2.25a14.15,14.15,0,0,0,4.15,2.79,11.36,11.36,0,0,0,4.43.86,8.59,8.59,0,0,0,4.64-1.13,3.67,3.67,0,0,0,1.78-3.28,2.79,2.79,0,0,0-.87-2.21,6.39,6.39,0,0,0-2.48-1.26Q295.23,40,293,39.41a30.62,30.62,0,0,1-4.24-1.47,6.31,6.31,0,0,1-2.58-2,5.11,5.11,0,0,1-.87-3.1,6.29,6.29,0,0,1,1.2-3.94,7.5,7.5,0,0,1,3.28-2.38,12.76,12.76,0,0,1,4.66-.81,13,13,0,0,1,5,.89,9.09,9.09,0,0,1,3.52,2.48l-1.55,2.16a8.12,8.12,0,0,0-3.12-2.23,10.67,10.67,0,0,0-4-.72,10.29,10.29,0,0,0-2.86.39A4.93,4.93,0,0,0,289.16,30a3.43,3.43,0,0,0-.87,2.49,2.9,2.9,0,0,0,.66,2,5,5,0,0,0,2,1.21c.87.32,1.95.67,3.23,1.05,1.85.49,3.46,1,4.83,1.51a8.07,8.07,0,0,1,3.19,2,4.81,4.81,0,0,1,1.12,3.4A6.24,6.24,0,0,1,300.72,49,11.12,11.12,0,0,1,293.92,50.92Z"/>
            <path class="cls-1"
                  d="M320.26,49.47q-.37.14-1.17.51a10.37,10.37,0,0,1-4.36.94,6.25,6.25,0,0,1-2.55-.52,4.24,4.24,0,0,1-1.9-1.57,4.63,4.63,0,0,1-.7-2.62V28.66H306.2V26.12h3.38V17.87h3.18v8.25h5.63v2.54h-5.63V45.33a2.63,2.63,0,0,0,1,2,3.23,3.23,0,0,0,2,.66,6.17,6.17,0,0,0,2.39-.45,6.54,6.54,0,0,0,1.31-.63Z"/>
            <path class="cls-1"
                  d="M325.65,58c.44,0,.86.06,1.27.07a2.43,2.43,0,0,0,.89-.07,1.93,1.93,0,0,0,1.08-.65,8.64,8.64,0,0,0,1.22-2.15c.47-1.06,1.12-2.61,2-4.67L321.44,26.12h3.37l8.95,21.09L342,26.12h3.19L332.55,57.54a5.46,5.46,0,0,1-1,1.66,4.81,4.81,0,0,1-1.62,1.22,6.2,6.2,0,0,1-2.36.49,5,5,0,0,1-.87,0,10.11,10.11,0,0,1-1.06-.12Z"/>
            <path class="cls-1"
                  d="M367.09,50.45l-9-12.49-5.21,4.87v7.62h-3.18V16.23h3.18V39.41l13.83-13.29h3.52l-10,10,10.36,14.36Z"/>
            <path class="cls-1"
                  d="M372.44,43.47a6.19,6.19,0,0,1,1.31-3.94A8.55,8.55,0,0,1,377.38,37a14.81,14.81,0,0,1,5.37-.91,26.6,26.6,0,0,1,3.7.28,16.38,16.38,0,0,1,3.43.85V35.13a6.58,6.58,0,0,0-1.83-4.89A6.88,6.88,0,0,0,383,28.42a10.59,10.59,0,0,0-3.87.73,18.86,18.86,0,0,0-4,2.13L373.94,29a20.6,20.6,0,0,1,4.69-2.46,13.73,13.73,0,0,1,4.68-.82,9.77,9.77,0,0,1,7.13,2.56,9.45,9.45,0,0,1,2.63,7.08V46.62a1.35,1.35,0,0,0,.28,1,1.29,1.29,0,0,0,.89.35v2.53l-.89.1a1.77,1.77,0,0,1-.57,0A2.36,2.36,0,0,1,391,49.8a2.52,2.52,0,0,1-.65-1.5l-.05-1.78A10.8,10.8,0,0,1,386,49.77a13.14,13.14,0,0,1-5.34,1.15,8.9,8.9,0,0,1-4.24-1,7.59,7.59,0,0,1-3-2.7A7,7,0,0,1,372.44,43.47Zm16.36,1.86a7.06,7.06,0,0,0,.8-1.26,2.7,2.7,0,0,0,.28-1.07V39.47a20.53,20.53,0,0,0-3.31-.93,19,19,0,0,0-3.44-.32,10.14,10.14,0,0,0-5.54,1.35,4.15,4.15,0,0,0-2.1,3.67,4.88,4.88,0,0,0,.7,2.53,5.39,5.39,0,0,0,2.06,1.95,6.41,6.41,0,0,0,3.19.76,10.46,10.46,0,0,0,4.29-.88A7.83,7.83,0,0,0,388.8,45.33Z"/>
            <path class="cls-1"
                  d="M228.76,98.18a7.18,7.18,0,0,1-1.62,4.87,9.52,9.52,0,0,1-4.33,2.77,19.37,19.37,0,0,1-6,.89H200.44V73.42h19.32a6.7,6.7,0,0,1,4.05,1.25,8,8,0,0,1,2.63,3.21,9.55,9.55,0,0,1,.91,4.08,9.14,9.14,0,0,1-1.19,4.45,7.46,7.46,0,0,1-3.59,3.23,8.18,8.18,0,0,1,6.19,8.54Zm-19.17-17v5.11h6.23A3.08,3.08,0,0,0,217,86.1a1.88,1.88,0,0,0,.94-.77,2.85,2.85,0,0,0,.38-1.59,3,3,0,0,0-.31-1.48,2,2,0,0,0-.8-.8,2.32,2.32,0,0,0-1.1-.25Zm9.89,15.09a3.46,3.46,0,0,0-.31-1.48,2.53,2.53,0,0,0-.82-1,2,2,0,0,0-1.22-.38h-7.54V99h7.22a2.78,2.78,0,0,0,1.35-.33,2.44,2.44,0,0,0,1-.94A2.88,2.88,0,0,0,219.48,96.3Z"/>
            <path class="cls-1" d="M256.51,98.74v8H232.79V73.42h23.3v8H241.93v4.69H254v7.41h-12.1v5.25Z"/>
            <path class="cls-1" d="M259.18,99.91l15.1-18.52h-14.4v-8h25.41v6.8L271.13,98.74h14.44v8H259.18Z"/>
            <path class="cls-1" d="M300.48,106.71V73.42h22.83v8H309.62v5.53h11.16v7.41H309.62v12.38Z"/>
            <path class="cls-1" d="M326.87,106.71V73.42H336v33.29Z"/>
            <path class="cls-1" d="M341.73,106.71V73.42h9.14V98.74H366v8Z"/>
            <path class="cls-1" d="M390.63,81.39h-9.57v25.32h-9.14V81.39h-9.61v-8h28.32Z"/>
            <path class="cls-1"
                  d="M394,106.71V73.42h15.29a10.29,10.29,0,0,1,4.5,1,11.24,11.24,0,0,1,3.56,2.65,12.43,12.43,0,0,1,2.32,3.72,11.19,11.19,0,0,1,.82,4.18,12.38,12.38,0,0,1-.56,3.7,11.35,11.35,0,0,1-1.64,3.26,11.56,11.56,0,0,1-2.58,2.55l7,12.24h-10L406.8,96.49h-3.7v10.22Zm9.15-18.19h5.76a1.67,1.67,0,0,0,1.08-.42,3.33,3.33,0,0,0,.87-1.22,4.81,4.81,0,0,0,.35-1.92,4.21,4.21,0,0,0-.4-1.95,3.35,3.35,0,0,0-1-1.19,2,2,0,0,0-1.15-.43H403.1Z"/>
            <path class="cls-1"
                  d="M440.18,106.94a16.09,16.09,0,0,1-6.89-1.43,16.61,16.61,0,0,1-5.33-3.84,17.49,17.49,0,0,1-3.42-5.44A16.82,16.82,0,0,1,423.35,90a16.18,16.18,0,0,1,1.26-6.33,17.61,17.61,0,0,1,3.54-5.36,16.63,16.63,0,0,1,5.39-3.73,16.82,16.82,0,0,1,6.82-1.36,16.27,16.27,0,0,1,6.89,1.43,16.07,16.07,0,0,1,5.3,3.87A17.82,17.82,0,0,1,456,84a16.65,16.65,0,0,1,1.2,6.21,16.22,16.22,0,0,1-1.25,6.28,17.06,17.06,0,0,1-8.88,9.12A16.59,16.59,0,0,1,440.18,106.94Zm-7.55-16.87a11,11,0,0,0,.47,3.25,8.87,8.87,0,0,0,1.4,2.82,7,7,0,0,0,2.37,2,7.48,7.48,0,0,0,3.4.72,7.37,7.37,0,0,0,3.42-.75,6.51,6.51,0,0,0,2.37-2,9.31,9.31,0,0,0,1.36-2.86,11.9,11.9,0,0,0,.44-3.21,11.16,11.16,0,0,0-.46-3.23A9.17,9.17,0,0,0,446,84a6.51,6.51,0,0,0-2.39-2,7.68,7.68,0,0,0-3.38-.7,7.26,7.26,0,0,0-3.4.75,6.92,6.92,0,0,0-2.36,2,8.5,8.5,0,0,0-1.39,2.81A12,12,0,0,0,432.63,90.07Zm10.55-18-5.63-1.5,2.34-6.66h7.93Z"/>
            <path class="cls-1"
                  d="M470.13,73.42h8.39l3.05,10.27,3.09-10.27h8.39l-5.62,15.9,2.39,6.79L497,73.42h9.94l-12.56,33.29h-7.93L481.57,94.8l-4.83,11.91h-7.92L456.25,73.42h9.9l7.22,22.69,2.29-6.79Z"/>
            <polygon class="cls-1"
                     points="0 27.78 59.09 115.73 67.5 103.61 61.89 95.1 59.54 99.26 17.24 36.87 28.1 36.87 86.14 123.42 99.9 103.34 94.65 95.01 86.5 107.14 32.58 27.37 0 27.78"/>
            <path class="cls-1"
                  d="M139.8,27.64,105.46,79,111,87l33.79-50.22h10.46L114,99.31l-22-31.6C100,57,113.52,37.33,113.52,26.85a26.86,26.86,0,0,0-53.71,0c0,10.43,13.16,30,21,40.72L73.11,78.72l5.25,8.06,8-11.77,27.33,40.59,59.18-87.82ZM86.66,9.91a16.94,16.94,0,0,1,17,16.94c0,9.36-17,33.5-17,33.5S69.72,36.21,69.72,26.85A16.94,16.94,0,0,1,86.66,9.91Z"/>
            <circle class="cls-1" cx="86.46" cy="26.78" r="6.79"/>
            <path class="cls-2"
                  d="M29.18,35.91l4-4.44.44.66-2,2.2c-.49.54-1,1.07-1.41,1.47h0c.53-.24,1.2-.48,1.92-.73l2.84-1,.44.64-2,2.22c-.48.52-1,1-1.41,1.44h0c.59-.25,1.21-.47,1.91-.73l2.83-1,.43.63-5.69,1.88L31,38.53,33,36.25a17.4,17.4,0,0,1,1.35-1.36v0a16.64,16.64,0,0,1-1.81.69l-2.94,1Z"/>
            <path class="cls-2"
                  d="M36.62,42.08l-1.26-1.85-1.72,1.16L35,43.46l-.52.35-1.81-2.68,4.77-3.23,1.74,2.58-.51.35-1.33-2-1.51,1,1.26,1.86Z"/>
            <path class="cls-2"
                  d="M37.48,47.84a3.65,3.65,0,0,1-1.08-1.11,2.69,2.69,0,0,1,.82-4,2.87,2.87,0,0,1,4.19.8A3,3,0,0,1,42,44.82l-.6.19a2.64,2.64,0,0,0-.45-1.1,2.14,2.14,0,0,0-3.23-.53A2.09,2.09,0,0,0,37,46.51a2.78,2.78,0,0,0,.88.87Z"/>
            <path class="cls-2"
                  d="M42.62,45.49l.41.62-2.3,1.55,0,0,.76,0,2.78.25.52.77-3.2-.36-1.49,3.72-.49-.73,1.28-3.16-.83-.1-1.82,1.23-.42-.61Z"/>
            <path class="cls-2"
                  d="M41,53.44,45,49l.44.65-2,2.2c-.5.55-1,1.08-1.41,1.47v0c.53-.25,1.2-.48,1.92-.73l2.84-1,.44.65-2,2.22c-.48.52-1,1-1.41,1.44h0c.59-.25,1.21-.48,1.9-.73l2.84-1,.42.63-5.68,1.88-.44-.65,2.08-2.28a17.69,17.69,0,0,1,1.35-1.37h0c-.54.23-1.07.44-1.81.68l-3,1Z"/>
            <path class="cls-2"
                  d="M48.47,59.61l-1.25-1.85L45.5,58.92,46.9,61l-.52.35-1.82-2.69,4.78-3.22L51.08,58l-.52.35-1.32-2-1.51,1L49,59.27Z"/>
            <path class="cls-2"
                  d="M51.63,59a7.43,7.43,0,0,1,.9,1.12,2.31,2.31,0,0,1,.54,1.64,1.42,1.42,0,0,1-.65,1,1.51,1.51,0,0,1-1.82-.07h0A1.43,1.43,0,0,1,50.09,64,9.51,9.51,0,0,0,49,65.25l-.43-.64a7.92,7.92,0,0,1,.93-1.09c.56-.59.64-1,.28-1.58l-.39-.59-2.07,1.4-.42-.61ZM49.87,61l.43.63a1.13,1.13,0,0,0,1.63.46c.62-.41.59-1,.15-1.7a3.21,3.21,0,0,0-.46-.57Z"/>
            <path class="cls-2" d="M54.4,64l-1-1.45.53-.35,2.39,3.53-.53.35-1-1.45-4.25,2.87-.42-.62Z"/>
            <path class="cls-2"
                  d="M57.11,66.92l-2,1.35,1.56,2.31,2-1.35.43.62-4.78,3.23-.42-.63,2.24-1.51-1.56-2.31-2.24,1.52-.42-.62L56.7,66.3Z"/>
        </g>
    </g>
</svg>