<svg width="24" height="24" viewBox="0 0 24 24" fill="none" xmlns="http://www.w3.org/2000/svg">
<path d="M21.5999 21.5999V14.5679C21.5999 11.1119 20.8559 8.4719 16.8239 8.4719C14.8799 8.4719 13.5839 9.5279 13.0559 10.5359H13.0079V8.7839H9.1919V21.5999H13.1759V15.2399C13.1759 13.5599 13.4879 11.9519 15.5519 11.9519C17.5919 11.9519 17.6159 13.8479 17.6159 15.3359V21.5759H21.5999V21.5999ZM2.7119 8.7839H6.6959V21.5999H2.7119V8.7839ZM4.7039 2.3999C3.4319 2.3999 2.3999 3.4319 2.3999 4.7039C2.3999 5.9759 3.4319 7.0319 4.7039 7.0319C5.9759 7.0319 7.0079 5.9759 7.0079 4.7039C7.0079 3.4319 5.9759 2.3999 4.7039 2.3999Z" fill="#252525"/>
</svg>
